<?xml version="1.0" encoding="utf-8"?>
<!-- Generator: Adobe Illustrator 24.2.3, SVG Export Plug-In . SVG Version: 6.00 Build 0)  -->
<svg version="1.1" id="Calque_1" xmlns="http://www.w3.org/2000/svg" xmlns:xlink="http://www.w3.org/1999/xlink" x="0px" y="0px"
	 viewBox="0 0 703 282" style="enable-background:new 0 0 703 282;" xml:space="preserve">
<style type="text/css">
	.st0{fill:none;}
</style>
<path d="M123,11.1h37.2v148.2H123v-15.7c-7.3,6.9-14.5,11.9-21.8,14.9c-7.5,3.1-15.6,4.6-23.7,4.6c-19.1,0-35.7-7.4-49.6-22.3
	c-14-14.8-20.9-33.3-21-55.4c0-22.9,6.8-41.6,20.3-56.2C40.6,14.6,57,7.3,76.3,7.3c8.6-0.1,17.1,1.6,25,5
	c8.1,3.6,15.5,8.7,21.6,15.1L123,11.1z M83.9,41.6c-11.5,0-21,4.1-28.6,12.2c-7.6,8.1-11.4,18.5-11.4,31.2
	c0,12.8,3.9,23.3,11.6,31.6c7.3,8.1,17.7,12.6,28.6,12.4c11.7,0,21.3-4.1,29-12.2c7.7-8.1,11.5-18.8,11.5-31.9
	c0-12.9-3.8-23.3-11.5-31.3C105.4,45.6,95.6,41.6,83.9,41.6z"/>
<path d="M206.8,11.1v16.3c6.2-6.4,13.6-11.5,21.8-15.1c7.9-3.4,16.4-5.1,25-5c19.3,0,35.8,7.3,49.3,21.9s20.3,33.4,20.3,56.2
	c0,22-7,40.5-21,55.4c-14,14.9-30.6,22.3-49.7,22.2c-8.2,0.1-16.3-1.5-23.8-4.6c-7.3-3-14.6-8-21.9-14.9v69.8h-36.9V11.1H206.8z
	 M245.8,41.6c-11.7,0-21.4,4-29.1,12c-7.7,8-11.6,18.4-11.6,31.3c0,13.2,3.9,23.8,11.6,31.9c7.7,8.1,17.4,12.2,29.1,12.2
	c10.9,0.2,21.3-4.3,28.7-12.4c7.8-8.3,11.6-18.8,11.6-31.6c0-12.8-3.8-23.2-11.4-31.2C267.1,45.7,257.4,41.6,245.8,41.6z"/>
<path d="M370,11.1v16.3c6.2-6.4,13.6-11.5,21.8-15.1c7.9-3.4,16.4-5.1,25-5c19.3,0,35.8,7.3,49.3,21.9s20.3,33.4,20.3,56.2
	c0,22-7,40.5-21,55.4s-30.6,22.3-49.7,22.3c-8.2,0.1-16.3-1.5-23.8-4.6c-7.3-3-14.6-8-21.9-14.9v69.8H333V11.1H370z M409,41.6
	c-11.7,0-21.4,4-29.1,12s-11.6,18.4-11.6,31.3c0,13.2,3.9,23.8,11.6,31.9c7.7,8.1,17.4,12.2,29.1,12.2c10.9,0.2,21.3-4.3,28.7-12.4
	c7.8-8.3,11.6-18.8,11.6-31.6s-3.8-23.2-11.4-31.2C430.3,45.7,420.7,41.6,409,41.6z"/>
<path d="M592.9,31.8l-23,23c-9.3-9.3-17.8-13.9-25.5-13.9c-4.2,0-7.4,0.9-9.8,2.7c-2.2,1.5-3.5,3.9-3.5,6.6c0,2.1,0.8,4,2.2,5.5
	c1.5,1.7,5.2,4,11.1,6.9l13.6,6.8c14.3,7.1,24.2,14.3,29.6,21.6s8,16,8,25.9c0.3,12.6-5,24.7-14.5,33c-9.7,8.8-22.6,13.2-38.9,13.2
	c-21.6,0-38.9-8.4-51.8-25.3l22.9-24.9c4.3,5,9.5,9.2,15.3,12.3c5.8,3.1,11,4.7,15.6,4.7c4.9,0,8.8-1.2,11.8-3.5
	c3-2.4,4.5-5.1,4.5-8.2c0-5.7-5.4-11.3-16.2-16.7l-12.5-6.3c-24-12.1-36-27.2-36-45.3c0-11.7,4.5-21.7,13.6-30
	c9-8.3,20.6-12.5,34.8-12.6C563.5,7.2,581.6,16.3,592.9,31.8L592.9,31.8z"/>
<path d="M602.3,11.1h31.9v18.7c3.5-7.3,8-12.9,13.8-16.8c5.5-3.8,12.1-5.8,18.8-5.8c5.3,0.1,10.4,1.4,15.1,3.8l-11.6,32
	c-4.4-2.2-7.9-3.3-10.8-3.3c-5.7,0-10.5,3.5-14.5,10.6c-4,7.1-5.9,21-5.9,41.7l0.1,7.2v60h-36.9V11.1z"/>
<path d="M14.6,255.1h3.2l6.3,16.5h-3.3l-1.3-3.4h-6.7l-1.3,3.4H8.2L14.6,255.1z M16.2,259.4l-2.2,5.7h4.4L16.2,259.4z"/>
<path d="M34.2,261.1l-1.9,1.9c-0.5-0.6-1.3-1.1-2.1-1.2c-0.3,0-0.6,0.1-0.8,0.2c-0.2,0.1-0.3,0.3-0.3,0.5c0,0.2,0.1,0.3,0.2,0.5
	c0.3,0.2,0.6,0.4,0.9,0.6l1.1,0.6c0.9,0.4,1.8,1,2.4,1.8c1.1,1.5,0.8,3.6-0.5,4.8c-0.9,0.8-2,1.1-3.2,1.1c-1.7,0-3.3-0.7-4.3-2.1
	l1.9-2.1c0.4,0.4,0.8,0.7,1.3,1c0.4,0.2,0.8,0.4,1.3,0.4c0.4,0,0.7-0.1,1-0.3c0.2-0.1,0.4-0.4,0.4-0.7c0-0.5-0.5-0.9-1.3-1.4l-1-0.5
	c-2-1-3-2.2-3-3.7c0-0.9,0.4-1.8,1.1-2.5c0.8-0.7,1.8-1,2.9-1c0.8,0,1.5,0.2,2.2,0.5C33.1,259.9,33.7,260.4,34.2,261.1z"/>
<path d="M44.8,261.1l-1.9,1.9c-0.5-0.6-1.3-1.1-2.1-1.2c-0.3,0-0.6,0.1-0.8,0.2c-0.2,0.1-0.3,0.3-0.3,0.5c0,0.2,0.1,0.3,0.2,0.5
	c0.3,0.2,0.6,0.4,0.9,0.6l1.1,0.6c0.9,0.4,1.8,1,2.4,1.8c0.5,0.6,0.7,1.4,0.7,2.1c0,1-0.4,2-1.2,2.7c-0.9,0.8-2,1.1-3.2,1.1
	c-1.7,0-3.3-0.7-4.3-2.1l1.9-2.1c0.4,0.4,0.8,0.7,1.3,1c0.4,0.2,0.8,0.4,1.3,0.4c0.4,0,0.7-0.1,1-0.3c0.2-0.1,0.4-0.4,0.4-0.7
	c0-0.5-0.5-0.9-1.3-1.4l-1-0.5c-2-1-3-2.2-3-3.7c0-0.9,0.4-1.8,1.1-2.5c0.8-0.7,1.8-1,2.9-1c0.8,0,1.5,0.2,2.2,0.5
	C43.7,259.9,44.3,260.4,44.8,261.1z"/>
<path d="M53.6,259c1.1,0,2.3,0.3,3.2,0.9c2,1.1,3.2,3.3,3.2,5.5c0,1.1-0.3,2.3-0.9,3.2c-0.6,1-1.4,1.8-2.3,2.3
	c-1,0.6-2.1,0.9-3.3,0.8c-1.7,0-3.3-0.7-4.5-1.9c-2.5-2.6-2.5-6.7,0.1-9.2c0.1-0.1,0.1-0.1,0.2-0.2C50.6,259.6,52.1,259,53.6,259z
	 M53.7,261.9c-0.9,0-1.8,0.3-2.4,1c-0.6,0.7-1,1.6-1,2.5c0,1,0.3,1.9,0.9,2.6c1.3,1.3,3.5,1.3,4.8,0c1.2-1.5,1.2-3.6,0-5.1
	C55.5,262.3,54.6,261.9,53.7,261.9z"/>
<path d="M75.1,261.8l-2.5,1.5c-0.4-0.4-0.9-0.8-1.4-1c-0.5-0.2-1.1-0.3-1.7-0.3c-1-0.1-2,0.3-2.8,1c-0.7,0.7-1.1,1.6-1.1,2.6
	c0,1,0.3,1.9,1,2.5c0.7,0.7,1.7,1,2.7,1c1.2,0.1,2.4-0.5,3.2-1.4l2.4,1.7c-2.7,3.1-7.4,3.4-10.5,0.7c0,0-0.1-0.1-0.1-0.1
	c-2.5-2.5-2.5-6.5,0-9c0.4-0.4,1-0.8,1.5-1.1c1.1-0.6,2.3-0.9,3.5-0.8c1.1,0,2.3,0.2,3.3,0.7C73.6,260.2,74.5,260.9,75.1,261.8z"/>
<path d="M79.5,254.3c0.5,0,1,0.2,1.4,0.6c0.4,0.4,0.6,0.9,0.6,1.4c0,0.5-0.2,1-0.6,1.4c-0.7,0.8-2,0.8-2.7,0c0,0,0,0,0,0
	c-0.4-0.4-0.6-0.9-0.6-1.4C77.6,255.1,78.5,254.3,79.5,254.3L79.5,254.3z M78,259.3H81v12.2H78V259.3z"/>
<path d="M93.3,259.4h3.1v12.2h-3.1v-1.3c-0.5,0.5-1.1,0.9-1.8,1.2c-0.6,0.3-1.3,0.4-2,0.4c-1.6,0-3.1-0.7-4.1-1.8
	c-1.2-1.2-1.8-2.9-1.7-4.6c-0.1-1.7,0.5-3.4,1.7-4.6c1.5-1.7,4-2.3,6.1-1.4c0.7,0.3,1.3,0.7,1.8,1.2L93.3,259.4z M90.1,261.9
	c-0.9,0-1.8,0.3-2.4,1c-0.6,0.7-1,1.6-0.9,2.6c0,1,0.3,1.9,1,2.6c1.3,1.3,3.3,1.4,4.7,0.1c0,0,0.1-0.1,0.1-0.1c0.7-0.7,1-1.7,1-2.6
	c0-1-0.3-1.9-1-2.6C91.9,262.2,91,261.8,90.1,261.9L90.1,261.9z"/>
<path d="M100.3,254.9h3.1v4.5h1.8v2.6h-1.8v9.6h-3.1V262h-1.6v-2.6h1.6V254.9z"/>
<path d="M108.5,254.3c0.5,0,1,0.2,1.4,0.6c0.4,0.4,0.6,0.9,0.6,1.4c0,0.5-0.2,1-0.6,1.4c-0.4,0.4-0.8,0.6-1.4,0.6
	c-0.5,0-1-0.2-1.4-0.6c-0.4-0.4-0.6-0.9-0.6-1.4c0-0.5,0.2-1,0.6-1.4C107.5,254.5,108,254.3,108.5,254.3z M107,259.3h3.1v12.2H107
	V259.3z"/>
<path d="M119.1,259c1.1,0,2.3,0.3,3.3,0.9c2,1.1,3.2,3.3,3.2,5.5c0,1.1-0.3,2.3-0.8,3.2c-0.6,1-1.4,1.8-2.3,2.3
	c-1,0.6-2.1,0.9-3.3,0.8c-1.7,0-3.3-0.7-4.5-1.9c-2.5-2.6-2.5-6.7,0.1-9.2c0.1-0.1,0.1-0.1,0.2-0.2C116,259.6,117.5,259,119.1,259z
	 M119.2,261.9c-0.9,0-1.8,0.3-2.4,1c-0.6,0.7-1,1.6-1,2.5c0,1,0.3,1.9,0.9,2.6c1.3,1.3,3.5,1.3,4.8,0c1.3-1.5,1.3-3.6,0-5.1
	C120.9,262.3,120.1,261.9,119.2,261.9z"/>
<path d="M128.6,259.4h3.1v1.3c0.6-0.5,1.2-0.9,1.9-1.2c0.5-0.2,1.1-0.3,1.7-0.3c1.2,0,2.3,0.4,3.1,1.3c0.8,0.9,1.2,2,1.1,3.2v8.1h-3
	v-5.3c0-1,0-1.9-0.2-2.9c-0.1-0.4-0.3-0.8-0.7-1.1c-0.4-0.3-0.8-0.4-1.2-0.4c-0.6,0-1.2,0.2-1.6,0.6c-0.5,0.5-0.8,1.1-0.9,1.7
	c-0.1,0.8-0.2,1.7-0.1,2.5v4.9h-3.1L128.6,259.4z"/>
<path d="M158.8,254.6h3.1v16.9h-3.1v-1.3c-0.5,0.5-1.1,0.9-1.8,1.2c-0.6,0.3-1.3,0.4-2,0.4c-1.6,0-3.1-0.7-4.1-1.8
	c-1.2-1.2-1.8-2.9-1.7-4.6c-0.1-1.7,0.5-3.4,1.7-4.6c1-1.2,2.5-1.8,4.1-1.8c0.7,0,1.4,0.1,2.1,0.4c0.7,0.3,1.3,0.7,1.8,1.2
	L158.8,254.6z M155.6,261.9c-0.9,0-1.8,0.3-2.4,1c-0.6,0.7-1,1.6-0.9,2.6c0,1,0.3,1.9,1,2.6c0.6,0.7,1.5,1,2.3,1
	c0.9,0,1.8-0.3,2.4-1c0.7-0.7,1-1.7,1-2.6c0-1-0.3-1.9-1-2.6C157.4,262.2,156.5,261.8,155.6,261.9L155.6,261.9z"/>
<path d="M177.7,266.4h-9.8c0.1,0.8,0.5,1.5,1.1,2.1c0.7,0.5,1.5,0.8,2.4,0.8c1.1,0,2.2-0.4,3-1.2l2.6,1.2c-0.6,0.9-1.4,1.5-2.3,2
	c-1,0.5-2.1,0.7-3.2,0.7c-1.7,0.1-3.4-0.6-4.7-1.8c-1.2-1.2-1.9-2.8-1.8-4.5c-0.1-1.7,0.6-3.4,1.8-4.6c1.2-1.2,2.8-1.9,4.5-1.8
	c1.8-0.1,3.5,0.6,4.7,1.8c1.2,1.3,1.9,3.1,1.8,4.9L177.7,266.4z M174.6,263.9c-0.2-0.7-0.6-1.3-1.2-1.7c-0.6-0.4-1.3-0.7-2.1-0.6
	c-0.8,0-1.6,0.2-2.2,0.7c-0.5,0.4-0.9,1-1.1,1.6H174.6z"/>
<path d="M187.9,255.1h3.4c1.3-0.1,2.6,0.1,3.9,0.5c0.8,0.3,1.4,0.9,1.9,1.6c0.5,0.8,0.7,1.7,0.7,2.7c0,1-0.3,2-0.9,2.9
	c-0.6,0.8-1.5,1.3-2.5,1.6c-1.1,0.2-2.2,0.3-3.3,0.2v7h-3.2L187.9,255.1z M191,261.5h1c0.6,0,1.1,0,1.6-0.2c0.3-0.1,0.5-0.3,0.7-0.6
	c0.2-0.3,0.3-0.6,0.3-0.9c0-0.6-0.2-1.1-0.7-1.4c-0.6-0.3-1.3-0.4-2-0.3H191V261.5z"/>
<path d="M200.2,259.4h2.6v1.5c0.2-0.6,0.6-1,1.1-1.4c0.5-0.3,1-0.5,1.5-0.5c0.4,0,0.9,0.1,1.2,0.3l-1,2.6c-0.3-0.2-0.6-0.2-0.9-0.3
	c-0.5,0-1,0.4-1.2,0.9c-0.4,1.1-0.6,2.3-0.5,3.4v0.6v4.9h-3L200.2,259.4z"/>
<path d="M214.5,259c1.1,0,2.3,0.3,3.2,0.9c1,0.6,1.8,1.4,2.4,2.3c0.6,1,0.9,2.1,0.9,3.2c0,1.1-0.3,2.3-0.9,3.2
	c-0.6,1-1.4,1.8-2.3,2.3c-1,0.6-2.1,0.9-3.3,0.8c-1.7,0-3.3-0.7-4.5-1.9c-2.5-2.6-2.5-6.7,0.1-9.2c0.1-0.1,0.1-0.1,0.2-0.2
	C211.4,259.6,212.9,259,214.5,259z M214.5,261.9c-0.9,0-1.8,0.3-2.4,1c-0.6,0.7-1,1.6-1,2.5c0,1,0.3,1.9,0.9,2.6
	c1.3,1.3,3.4,1.3,4.8,0c0,0,0,0,0,0c0.7-0.7,1-1.6,1-2.6c0-0.9-0.3-1.9-0.9-2.5C216.3,262.3,215.5,261.9,214.5,261.9L214.5,261.9z"
	/>
<path d="M223.9,259.4h3.1v1.4c0.5-0.6,1.1-1,1.8-1.3c0.7-0.3,1.4-0.4,2.1-0.4c0.7,0,1.4,0.2,2.1,0.6c0.6,0.4,1.1,1,1.5,1.6
	c0.5-0.7,1.1-1.3,1.8-1.6c0.7-0.4,1.5-0.6,2.3-0.6c0.8,0,1.6,0.2,2.3,0.6c0.6,0.4,1.1,0.9,1.4,1.6c0.3,1,0.5,2.1,0.4,3.2v7.2h-3.1
	v-6.2c0.1-1-0.1-1.9-0.5-2.8c-0.4-0.5-0.9-0.8-1.5-0.7c-0.5,0-1,0.2-1.4,0.5c-0.4,0.3-0.7,0.7-0.9,1.2c-0.2,0.8-0.3,1.7-0.3,2.5v5.5
	h-3.1v-5.9c0-0.8,0-1.6-0.2-2.4c-0.1-0.4-0.4-0.8-0.7-1.1c-0.3-0.2-0.8-0.4-1.2-0.4c-0.5,0-1,0.1-1.4,0.4c-0.4,0.3-0.8,0.8-0.9,1.3
	c-0.2,0.8-0.4,1.7-0.3,2.6v5.4h-3.1V259.4z"/>
<path d="M251.8,259c1.1,0,2.3,0.3,3.2,0.9c2,1.1,3.2,3.3,3.2,5.5c0,1.1-0.3,2.3-0.9,3.2c-0.6,1-1.4,1.8-2.3,2.3
	c-1,0.6-2.1,0.9-3.3,0.8c-1.7,0-3.3-0.7-4.5-1.9c-2.5-2.6-2.5-6.7,0.1-9.2c0.1-0.1,0.1-0.1,0.2-0.2C248.7,259.6,250.2,259,251.8,259
	z M251.9,261.9c-0.9,0-1.8,0.3-2.4,1c-0.7,0.7-1,1.6-1,2.5c0,1,0.3,1.9,0.9,2.6c1.3,1.3,3.4,1.3,4.8,0c0,0,0,0,0,0
	c1.3-1.5,1.3-3.6,0-5.1C253.6,262.3,252.7,261.9,251.9,261.9z"/>
<path d="M261.6,254.9h3.1v4.5h1.8v2.6h-1.8v9.6h-3.1V262h-1.6v-2.6h1.6V254.9z"/>
<path d="M269.8,254.3c0.5,0,1,0.2,1.4,0.6c0.8,0.8,0.8,2,0,2.8c-0.7,0.8-2,0.8-2.7,0c0,0,0,0,0,0c-0.4-0.4-0.6-0.9-0.6-1.4
	c0-0.5,0.2-1,0.6-1.4C268.8,254.5,269.3,254.3,269.8,254.3z M268.3,259.3h3.1v12.2h-3.1V259.3z"/>
<path d="M280.4,259c1.1,0,2.3,0.3,3.2,0.9c1,0.6,1.8,1.4,2.4,2.3c0.6,1,0.9,2.1,0.9,3.2c0,1.1-0.3,2.3-0.9,3.2
	c-0.6,1-1.4,1.8-2.3,2.3c-1,0.6-2.1,0.9-3.3,0.8c-1.7,0-3.3-0.7-4.5-1.9c-2.5-2.6-2.5-6.7,0.1-9.2c0.1-0.1,0.1-0.1,0.2-0.2
	C277.3,259.6,278.8,259,280.4,259z M280.4,261.9c-0.9,0-1.8,0.3-2.4,1c-0.6,0.7-1,1.6-1,2.5c0,1,0.3,1.9,0.9,2.6
	c1.3,1.3,3.4,1.3,4.8,0c0,0,0,0,0,0c0.7-0.7,1-1.6,1-2.6c0-0.9-0.3-1.9-0.9-2.5C282.3,262.3,281.4,261.9,280.4,261.9z"/>
<path d="M289.8,259.4h3.1v1.3c0.6-0.5,1.2-0.9,1.9-1.2c0.5-0.2,1.1-0.3,1.7-0.3c1.2,0,2.3,0.4,3.1,1.3c0.8,0.9,1.1,2,1.1,3.2v8.1h-3
	v-5.3c0-1,0-1.9-0.2-2.9c-0.1-0.4-0.3-0.8-0.7-1.1c-0.3-0.3-0.8-0.4-1.2-0.4c-0.6,0-1.2,0.2-1.6,0.6c-0.5,0.5-0.8,1.1-0.9,1.7
	c-0.1,0.8-0.2,1.7-0.1,2.5v4.9h-3.1V259.4z"/>
<path d="M320.1,254.6h3.1v16.9h-3.1v-1.3c-0.5,0.5-1.1,0.9-1.8,1.2c-0.6,0.3-1.3,0.4-2,0.4c-1.6,0-3.1-0.7-4.1-1.8
	c-1.2-1.2-1.8-2.9-1.7-4.6c-0.1-1.7,0.5-3.4,1.7-4.6c1.5-1.7,4-2.3,6.1-1.4c0.7,0.3,1.3,0.7,1.8,1.2L320.1,254.6z M316.9,261.9
	c-0.9,0-1.8,0.3-2.4,1c-1.3,1.5-1.3,3.7,0,5.2c0.6,0.7,1.5,1,2.3,1c0.9,0,1.8-0.3,2.4-1c0.7-0.7,1-1.7,1-2.6c0-1-0.3-1.9-1-2.6
	C318.6,262.2,317.7,261.8,316.9,261.9L316.9,261.9z"/>
<path d="M339,266.4h-9.8c0.1,0.8,0.5,1.5,1.1,2.1c0.7,0.5,1.5,0.8,2.4,0.8c1.1,0,2.2-0.4,3-1.2l2.6,1.2c-0.6,0.9-1.4,1.5-2.3,2
	c-1,0.5-2.1,0.7-3.2,0.7c-1.7,0.1-3.4-0.6-4.7-1.8c-1.2-1.2-1.9-2.8-1.8-4.5c-0.1-1.7,0.6-3.4,1.8-4.6c1.2-1.2,2.8-1.9,4.5-1.8
	c1.8-0.1,3.5,0.6,4.7,1.8c1.2,1.3,1.9,3.1,1.8,4.9L339,266.4z M335.9,263.9c-0.2-0.7-0.6-1.3-1.2-1.7c-0.6-0.4-1.3-0.7-2.1-0.6
	c-0.8,0-1.6,0.2-2.2,0.7c-0.5,0.4-0.9,1-1.1,1.6H335.9z"/>
<path d="M349.2,255.1h3.3c1.3-0.1,2.6,0.1,3.9,0.5c0.8,0.3,1.4,0.9,1.9,1.6c0.5,0.8,0.7,1.7,0.7,2.7c0,1-0.3,2-0.9,2.9
	c-0.6,0.8-1.5,1.3-2.5,1.6c-1.1,0.2-2.2,0.3-3.3,0.2v7h-3.2V255.1z M352.3,261.5h1c0.6,0,1.1,0,1.6-0.2c0.3-0.1,0.5-0.3,0.7-0.6
	c0.2-0.3,0.3-0.6,0.3-0.9c0-0.6-0.3-1.1-0.7-1.4c-0.6-0.3-1.3-0.4-2-0.3h-0.9V261.5z"/>
<path d="M361.5,259.4h2.6v1.5c0.2-0.6,0.6-1,1.1-1.4c0.5-0.3,1-0.5,1.5-0.5c0.4,0,0.9,0.1,1.2,0.3l-1,2.6c-0.3-0.2-0.6-0.2-0.9-0.3
	c-0.5,0-1,0.4-1.2,0.9c-0.4,1.1-0.6,2.3-0.5,3.4v5.5h-3L361.5,259.4z"/>
<path d="M382.2,266.4h-9.8c0.1,0.8,0.5,1.5,1.1,2.1c0.7,0.5,1.5,0.8,2.4,0.8c1.1,0,2.2-0.4,3-1.2l2.6,1.2c-0.6,0.9-1.4,1.5-2.3,2
	c-1,0.5-2.1,0.7-3.2,0.7c-1.7,0.1-3.4-0.6-4.7-1.8c-1.2-1.2-1.9-2.8-1.8-4.5c-0.1-1.7,0.6-3.4,1.8-4.6c1.2-1.2,2.8-1.9,4.5-1.8
	c1.8-0.1,3.5,0.6,4.7,1.8c1.2,1.3,1.9,3.1,1.8,4.9L382.2,266.4z M379.2,263.9c-0.2-0.7-0.6-1.3-1.2-1.7c-0.6-0.4-1.3-0.7-2.1-0.6
	c-0.8,0-1.6,0.2-2.2,0.7c-0.5,0.4-0.9,1-1.1,1.6H379.2z M376.4,252.7h3.6l-4.1,4.4h-2.2L376.4,252.7z"/>
<path d="M384,259.4h3.1l3.1,7.2l3.1-7.2h3.1l-5.2,12.2h-2L384,259.4z"/>
<path d="M404.4,259c1.1,0,2.3,0.3,3.2,0.9c2,1.1,3.2,3.3,3.2,5.5c0,1.1-0.3,2.3-0.9,3.2c-0.6,1-1.4,1.8-2.3,2.3
	c-1,0.6-2.1,0.9-3.3,0.8c-1.7,0-3.3-0.7-4.5-1.9c-2.5-2.6-2.5-6.7,0.1-9.2c0.1-0.1,0.1-0.1,0.2-0.2C401.3,259.6,402.8,259,404.4,259
	z M404.4,261.9c-0.9,0-1.8,0.3-2.4,1c-0.6,0.7-1,1.6-1,2.5c0,1,0.3,1.9,0.9,2.6c1.3,1.3,3.5,1.3,4.8,0c0.7-0.7,1-1.6,1-2.6
	c0-0.9-0.3-1.9-0.9-2.5C406.2,262.3,405.3,261.9,404.4,261.9L404.4,261.9z"/>
<path d="M412.5,259.4h3.1l3.2,7.7l3.5-7.7h3.1l-7.7,16.7h-3.2l2.5-5.4L412.5,259.4z"/>
<path d="M436.7,259.4h3.1v12.2h-3.1v-1.3c-0.5,0.5-1.1,0.9-1.8,1.2c-0.6,0.3-1.3,0.4-2,0.4c-1.6,0-3.1-0.7-4.1-1.8
	c-1.2-1.2-1.8-2.9-1.7-4.6c-0.1-1.7,0.5-3.4,1.7-4.6c1.5-1.7,4-2.3,6.1-1.4c0.7,0.3,1.3,0.7,1.8,1.2L436.7,259.4z M433.5,261.9
	c-0.9,0-1.8,0.3-2.4,1c-0.6,0.7-1,1.6-0.9,2.6c0,1,0.3,1.9,0.9,2.6c1.3,1.3,3.3,1.4,4.7,0.1c0,0,0.1-0.1,0.1-0.1
	c0.7-0.7,1-1.7,1-2.6c0-1-0.3-1.9-1-2.6C435.2,262.2,434.4,261.8,433.5,261.9L433.5,261.9z"/>
<path d="M443.3,259.4h3.1v1.3c0.6-0.5,1.2-0.9,1.9-1.2c0.5-0.2,1.1-0.3,1.7-0.3c1.2,0,2.3,0.4,3.1,1.3c0.8,0.9,1.2,2,1.1,3.2v8.1h-3
	v-5.3c0-1,0-1.9-0.2-2.9c-0.1-0.4-0.3-0.8-0.7-1.1c-0.4-0.3-0.8-0.4-1.2-0.4c-0.6,0-1.2,0.2-1.6,0.6c-0.5,0.5-0.8,1.1-0.9,1.7
	c-0.1,0.8-0.2,1.7-0.1,2.5v4.9h-3.1L443.3,259.4z"/>
<path d="M469.6,261.8l-2.6,1.4c-0.4-0.4-0.9-0.8-1.4-1c-0.5-0.2-1.1-0.3-1.7-0.3c-1-0.1-2,0.3-2.8,1c-0.7,0.7-1.1,1.6-1.1,2.6
	c0,0.9,0.3,1.9,1,2.5c0.7,0.7,1.7,1,2.7,1c1.2,0.1,2.4-0.5,3.2-1.4l2.4,1.7c-2.7,3.1-7.4,3.4-10.5,0.7c0,0-0.1-0.1-0.1-0.1
	c-2-2.1-2.4-5.2-0.9-7.7c0.6-1,1.4-1.8,2.5-2.3c1.1-0.6,2.3-0.9,3.6-0.8c1.1,0,2.3,0.2,3.3,0.7C468.1,260.2,469,260.9,469.6,261.8z"
	/>
<path d="M485.1,266.4h-9.8c0.1,0.8,0.5,1.5,1.1,2.1c0.7,0.5,1.5,0.8,2.4,0.8c1.1,0,2.2-0.4,3-1.2l2.6,1.2c-0.6,0.9-1.4,1.5-2.3,2
	c-1,0.5-2.1,0.7-3.2,0.7c-1.7,0.1-3.4-0.6-4.7-1.8c-1.2-1.2-1.9-2.8-1.8-4.5c-0.1-1.7,0.6-3.4,1.8-4.6c1.2-1.2,2.8-1.9,4.5-1.8
	c1.8-0.1,3.5,0.6,4.7,1.8c1.2,1.3,1.9,3.1,1.8,4.9L485.1,266.4z M482,263.9c-0.2-0.7-0.6-1.3-1.2-1.7c-0.6-0.4-1.3-0.7-2.1-0.6
	c-0.8,0-1.6,0.2-2.2,0.7c-0.5,0.4-0.9,1-1.1,1.6H482z"/>
<path d="M489.5,268.5l2.2,1.1l-2.8,4.7l-1.5-0.7L489.5,268.5z"/>
<path d="M510.9,257.3l-2.3,2c-0.5-0.9-1.4-1.6-2.5-1.7c-0.4,0-0.7,0.1-1,0.3c-0.2,0.2-0.4,0.4-0.4,0.7c0,0.3,0.1,0.6,0.3,0.8
	c0.7,0.8,1.5,1.5,2.3,2.1c1.2,1,1.9,1.6,2.2,1.9c0.6,0.5,1,1.2,1.3,1.8c0.3,0.6,0.4,1.3,0.4,1.9c0,1.3-0.5,2.5-1.4,3.4
	c-1,0.9-2.3,1.4-3.7,1.3c-1.1,0-2.2-0.3-3.1-0.9c-1-0.7-1.7-1.6-2.2-2.7l2.6-1.6c0.8,1.5,1.7,2.2,2.7,2.2c0.5,0,1-0.2,1.4-0.5
	c0.3-0.3,0.5-0.7,0.6-1.1c0-0.4-0.2-0.8-0.4-1.1c-0.5-0.6-1.2-1.2-1.8-1.7c-1.3-1-2.5-2.1-3.5-3.4c-0.5-0.7-0.8-1.5-0.8-2.4
	c0-1.1,0.5-2.2,1.3-2.9c0.9-0.8,2-1.3,3.2-1.2c0.8,0,1.6,0.2,2.4,0.6C509.4,255.7,510.2,256.4,510.9,257.3z"/>
<path d="M523.3,259.4h3.1v12.2h-3.1v-1.3c-0.5,0.5-1.1,0.9-1.8,1.2c-0.6,0.3-1.3,0.4-2,0.4c-1.6,0-3.1-0.7-4.1-1.8
	c-1.2-1.2-1.8-2.9-1.7-4.6c-0.1-1.7,0.5-3.4,1.7-4.6c1.5-1.7,4-2.3,6.1-1.4c0.7,0.3,1.3,0.7,1.8,1.2L523.3,259.4z M520.1,261.9
	c-0.9,0-1.8,0.3-2.4,1c-0.6,0.7-1,1.6-0.9,2.6c0,1,0.3,1.9,1,2.6c0.6,0.7,1.5,1,2.3,1c0.9,0,1.8-0.3,2.4-1c0.7-0.7,1-1.7,1-2.6
	c0-1-0.3-1.9-1-2.6C521.9,262.2,521,261.8,520.1,261.9z"/>
<path d="M530,259.4h3.1v1.3c0.6-0.5,1.2-0.9,1.9-1.2c0.5-0.2,1.1-0.3,1.7-0.3c1.2,0,2.3,0.4,3.1,1.3c0.8,0.9,1.1,2,1.1,3.2v8.1h-3
	v-5.3c0-1,0-1.9-0.2-2.9c-0.1-0.4-0.3-0.8-0.7-1.1c-0.3-0.3-0.8-0.4-1.2-0.4c-0.6,0-1.2,0.2-1.6,0.6c-0.5,0.5-0.8,1.1-0.9,1.7
	c-0.1,0.8-0.2,1.7-0.1,2.5v4.9H530L530,259.4z"/>
<path d="M544.6,254.9h3.1v4.5h1.8v2.6h-1.8v9.6h-3.1V262h-1.6v-2.6h1.6V254.9z"/>
<path d="M563.9,266.4H554c0.1,0.8,0.5,1.5,1.1,2.1c0.7,0.5,1.5,0.8,2.4,0.8c1.1,0,2.2-0.4,3-1.2l2.6,1.2c-0.6,0.9-1.4,1.5-2.3,2
	c-1,0.5-2.1,0.7-3.2,0.7c-1.7,0.1-3.4-0.6-4.7-1.8c-1.2-1.2-1.8-2.8-1.8-4.5c-0.1-1.7,0.6-3.4,1.8-4.6c1.2-1.2,2.8-1.9,4.5-1.8
	c1.8-0.1,3.5,0.6,4.7,1.8c1.2,1.3,1.9,3.1,1.8,4.9L563.9,266.4z M560.8,263.9c-0.2-0.7-0.6-1.3-1.2-1.7c-0.6-0.4-1.3-0.7-2.1-0.6
	c-0.8,0-1.6,0.2-2.2,0.7c-0.5,0.4-0.9,1-1.1,1.6H560.8z M557.9,252.7h3.6l-4.1,4.4h-2.2L557.9,252.7z"/>
<path d="M586,266.4h-9.8c0.1,0.8,0.5,1.5,1.1,2.1c0.7,0.5,1.5,0.8,2.4,0.8c1.1,0,2.2-0.4,2.9-1.2l2.6,1.2c-0.6,0.9-1.4,1.5-2.3,2
	c-1,0.5-2.1,0.7-3.2,0.7c-1.7,0.1-3.4-0.6-4.7-1.8c-1.2-1.2-1.9-2.8-1.8-4.5c-0.1-1.7,0.6-3.4,1.8-4.6c1.2-1.2,2.8-1.9,4.5-1.8
	c1.8-0.1,3.5,0.6,4.7,1.8c1.2,1.3,1.9,3.1,1.8,4.9L586,266.4z M582.9,263.9c-0.2-0.7-0.6-1.3-1.2-1.7c-0.6-0.4-1.3-0.6-2.1-0.6
	c-0.8,0-1.6,0.2-2.2,0.7c-0.5,0.4-0.9,1-1.1,1.6H582.9z"/>
<path d="M589.3,254.9h3.1v4.5h1.9v2.6h-1.8v9.6h-3.1V262h-1.6v-2.6h1.6L589.3,254.9z"/>
<path d="M603.8,255.1h3.3c1.3-0.1,2.6,0.1,3.9,0.5c0.8,0.3,1.4,0.9,1.9,1.6c0.5,0.8,0.7,1.7,0.7,2.7c0,1-0.2,1.9-0.8,2.7
	c-0.6,0.8-1.4,1.4-2.3,1.7l3.9,7.3H611l-3.7-7H607v7h-3.1V255.1z M607,261.5h1c0.7,0.1,1.4-0.1,2.1-0.4c0.4-0.3,0.6-0.8,0.6-1.3
	c0-0.3-0.1-0.7-0.3-0.9c-0.2-0.3-0.4-0.5-0.8-0.6c-0.6-0.1-1.1-0.2-1.7-0.2H607L607,261.5z"/>
<path d="M629.3,266.4h-9.8c0.1,0.8,0.5,1.5,1.1,2.1c0.7,0.5,1.5,0.8,2.4,0.8c1.1,0,2.2-0.4,3-1.2l2.6,1.2c-0.6,0.9-1.4,1.5-2.3,2
	c-1,0.5-2.1,0.7-3.2,0.7c-1.7,0.1-3.4-0.6-4.7-1.8c-1.2-1.2-1.9-2.8-1.8-4.5c-0.1-1.7,0.6-3.4,1.8-4.6c1.2-1.2,2.8-1.9,4.5-1.8
	c1.8-0.1,3.5,0.6,4.7,1.8c1.2,1.3,1.9,3.1,1.8,4.9L629.3,266.4z M626.3,263.9c-0.2-0.7-0.6-1.3-1.2-1.7c-0.6-0.4-1.3-0.7-2.1-0.6
	c-0.8,0-1.6,0.2-2.2,0.7c-0.5,0.4-0.9,1-1.1,1.6H626.3z"/>
<path d="M632.7,254.9h3.1v4.5h1.8v2.6h-1.8v9.6h-3.1V262h-1.6v-2.6h1.6V254.9z"/>
<path d="M638.9,259.4h2.6v1.5c0.2-0.6,0.6-1,1.1-1.4c0.5-0.3,1-0.5,1.6-0.5c0.4,0,0.9,0.1,1.2,0.3l-1,2.6c-0.3-0.2-0.6-0.2-0.9-0.3
	c-0.5,0-1,0.4-1.2,0.9c-0.4,1.1-0.6,2.3-0.5,3.4v5.5h-3L638.9,259.4z"/>
<path d="M656.5,259.4h3.1v12.2h-3.1v-1.3c-0.5,0.5-1.1,0.9-1.8,1.2c-0.6,0.3-1.3,0.4-2,0.4c-1.6,0-3.1-0.7-4.1-1.8
	c-1.2-1.2-1.8-2.9-1.7-4.6c-0.1-1.7,0.5-3.4,1.7-4.6c1.5-1.7,4-2.3,6.1-1.4c0.7,0.3,1.3,0.7,1.8,1.2L656.5,259.4z M653.3,261.9
	c-0.9,0-1.8,0.3-2.4,1c-0.6,0.7-1,1.6-0.9,2.6c0,1,0.3,1.9,1,2.6c0.6,0.7,1.5,1,2.4,1c0.9,0,1.8-0.3,2.4-1c0.7-0.7,1-1.7,1-2.6
	c0-1-0.3-1.9-1-2.6C655.1,262.2,654.2,261.8,653.3,261.9z"/>
<path d="M664.4,254.3c0.5,0,1,0.2,1.4,0.6c0.4,0.4,0.6,0.9,0.6,1.4c0,0.5-0.2,1-0.6,1.4c-0.4,0.4-0.9,0.6-1.4,0.6
	c-0.5,0-1-0.2-1.4-0.6c-0.4-0.4-0.6-0.9-0.6-1.4c0-0.5,0.2-1,0.6-1.4C663.3,254.5,663.8,254.3,664.4,254.3z M662.8,259.3h3.1v12.2
	h-3.1V259.3z"/>
<path d="M669.5,254.9h3.1v4.5h1.8v2.6h-1.8v9.6h-3.1V262H668v-2.6h1.6V254.9z"/>
<path d="M688.8,266.4h-9.8c0.1,0.8,0.5,1.5,1.1,2.1c0.7,0.5,1.5,0.8,2.4,0.8c1.1,0,2.2-0.4,3-1.2l2.6,1.2c-0.6,0.9-1.4,1.5-2.3,2
	c-1,0.5-2.1,0.7-3.2,0.7c-1.7,0.1-3.4-0.6-4.7-1.8c-1.2-1.2-1.9-2.8-1.8-4.5c-0.1-1.7,0.6-3.4,1.8-4.6c1.2-1.2,2.8-1.9,4.5-1.8
	c1.8-0.1,3.5,0.6,4.7,1.8c1.2,1.3,1.9,3.1,1.8,4.9L688.8,266.4z M685.7,263.9c-0.2-0.7-0.6-1.3-1.2-1.7c-0.6-0.4-1.3-0.7-2.1-0.6
	c-0.8,0-1.6,0.2-2.2,0.7c-0.5,0.4-0.9,1-1.1,1.6H685.7z"/>
<path d="M670.2,117.5c5.7-0.1,11.1,2.1,15.1,6.2c8.3,8.3,8.4,21.8,0.1,30.1c0,0,0,0-0.1,0.1c-8.4,8.3-21.9,8.3-30.2,0
	c-4-4-6.2-9.4-6.3-15.1c-0.1-5.7,2.2-11.1,6.3-15C659.1,119.6,664.6,117.4,670.2,117.5z"/>
<rect x="597.2" y="-182.9" class="st0" width="21.6" height="674.5"/>
<rect x="-52" y="-57.2" class="st0" width="793" height="398"/>
</svg>
