<?xml version="1.0" encoding="utf-8"?>
<!-- Generator: Adobe Illustrator 24.2.3, SVG Export Plug-In . SVG Version: 6.00 Build 0)  -->
<svg version="1.1" id="Calque_1" xmlns="http://www.w3.org/2000/svg" xmlns:xlink="http://www.w3.org/1999/xlink" x="0px" y="0px"
	 viewBox="0 0 707 226" style="enable-background:new 0 0 707 226;" xml:space="preserve" fill="#335eea ">
<path d="M127,13.1h37.2v148.2H127v-15.7c-7.3,6.9-14.5,11.9-21.8,14.9c-7.5,3.1-15.6,4.6-23.7,4.6c-19.1,0-35.7-7.4-49.6-22.3
	c-14-14.8-20.9-33.3-21-55.3c0-22.9,6.8-41.6,20.3-56.2C44.7,16.7,61.1,9.4,80.4,9.4c8.6-0.1,17.1,1.6,25,5
	c8.1,3.6,15.5,8.7,21.6,15.1V13.1z M87.9,43.6c-11.5,0-21,4.1-28.6,12.2c-7.6,8.1-11.4,18.5-11.4,31.3c0,12.8,3.9,23.3,11.6,31.6
	c7.3,8.1,17.7,12.6,28.6,12.4c11.7,0,21.3-4.1,29-12.2s11.5-18.8,11.5-31.9c0-12.9-3.8-23.3-11.5-31.3
	C109.4,47.6,99.6,43.6,87.9,43.6z"/>
<path d="M210.8,13.1v16.3c6.2-6.4,13.6-11.5,21.8-15.1c7.9-3.4,16.4-5.1,25-5c19.3,0,35.8,7.3,49.3,21.9s20.3,33.4,20.3,56.2
	c0,22-7,40.5-21,55.3c-14,14.9-30.6,22.3-49.7,22.2c-8.2,0.1-16.3-1.5-23.8-4.6c-7.3-3-14.6-8-21.9-14.9v69.8h-36.9V13.1H210.8z
	 M249.8,43.6c-11.7,0-21.4,4-29.1,12S209.1,74,209.1,86.9c0,13.2,3.9,23.8,11.6,31.9s17.4,12.2,29.1,12.2
	c10.9,0.2,21.3-4.3,28.7-12.4c7.8-8.3,11.6-18.8,11.6-31.6c0-12.8-3.8-23.2-11.4-31.3C271.1,47.7,261.4,43.6,249.8,43.6z"/>
<path d="M374,13.1v16.3c6.2-6.4,13.6-11.5,21.8-15.1c7.9-3.4,16.4-5.1,25-5c19.3,0,35.8,7.3,49.3,21.9s20.3,33.4,20.3,56.2
	c0,22-7,40.5-21,55.3s-30.6,22.4-49.8,22.4c-8.2,0.1-16.3-1.5-23.8-4.6c-7.3-3-14.6-8-21.9-14.9v69.8H337V13.1H374z M413,43.6
	c-11.7,0-21.4,4-29.1,12S372.3,74,372.3,86.9c0,13.2,3.9,23.8,11.6,31.9S401.3,131,413,131c10.9,0.2,21.3-4.3,28.7-12.4
	c7.8-8.3,11.6-18.8,11.6-31.6c0-12.8-3.8-23.2-11.4-31.3C434.3,47.7,424.7,43.6,413,43.6z"/>
<path d="M596.9,33.8l-23,23c-9.3-9.3-17.8-13.9-25.5-13.9c-4.2,0-7.4,0.9-9.8,2.7c-2.2,1.5-3.5,3.9-3.5,6.6c0,2.1,0.8,4,2.2,5.5
	c1.5,1.7,5.2,4,11.1,6.9l13.6,6.8c14.3,7.1,24.2,14.3,29.6,21.7s8,16,8,25.9c0.3,12.6-5,24.7-14.5,33c-9.7,8.8-22.6,13.2-38.9,13.2
	c-21.6,0-38.9-8.4-51.8-25.3l22.9-24.9c4.3,5,9.5,9.2,15.3,12.3c5.8,3.1,11,4.7,15.6,4.7c4.9,0,8.8-1.2,11.8-3.5s4.5-5.1,4.5-8.2
	c0-5.7-5.4-11.3-16.2-16.7l-12.5-6.3c-24-12.1-36-27.2-36-45.3c0-11.7,4.5-21.7,13.6-30c9-8.3,20.6-12.5,34.8-12.6
	C567.5,9.2,585.6,18.3,596.9,33.8L596.9,33.8z"/>
<path d="M606.3,13.1h31.9v18.7c3.5-7.3,8-12.9,13.8-16.8c5.5-3.8,12.1-5.8,18.8-5.8c5.3,0.1,10.4,1.4,15.1,3.8l-11.6,32
	c-4.4-2.2-7.9-3.3-10.8-3.3c-5.7,0-10.5,3.5-14.5,10.6s-5.9,21-5.9,41.7l0.1,7.2v60h-36.9L606.3,13.1L606.3,13.1z"/>
<path d="M674.2,119.4c5.7-0.1,11.1,2.1,15.1,6.2c8.3,8.3,8.4,21.8,0.1,30.1c0,0,0,0-0.1,0.1c-8.4,8.3-21.9,8.3-30.2,0
	c-4-4-6.2-9.4-6.3-15.1s2.2-11.1,6.3-15C663.1,121.6,668.6,119.4,674.2,119.4z"/>
</svg>
