<?xml version="1.0" encoding="utf-8"?>
<!-- Generator: Adobe Illustrator 26.0.2, SVG Export Plug-In . SVG Version: 6.00 Build 0)  -->
<svg version="1.1" id="Calque_1" xmlns="http://www.w3.org/2000/svg" xmlns:xlink="http://www.w3.org/1999/xlink" x="0px" y="0px"
	 viewBox="0 0 240.1 90" style="enable-background:new 0 0 240.1 90;" xml:space="preserve">
<style type="text/css">
	.st0{fill:none;}
	.st1{fill:#595959;}
</style>
<rect class="st0" width="240.1" height="90"/>
<g>
	<path class="st1" d="M228.1,48.5c-0.2-0.3-0.3,0-0.5-0.1c-0.2,0.2-0.3-0.3-0.5-0.2c-0.2-0.2-0.3,0-0.5-0.1
		c-0.2,0.3-0.3,0.3-0.5-0.1c-0.2,0-0.3-0.1-0.5,0c-0.2,0.2-0.3-0.2-0.5,0c-0.2-0.5-0.3-0.2-0.5,0.1c-0.2-0.1-0.3-0.6-0.5,0.1
		c-0.2-0.1-0.3,0.1-0.5,0.2c-0.2-0.3-0.3,0.2-0.5,0c-0.2-0.6-0.3,0-0.5-0.2c-0.1-0.1-0.2,0.2-0.2,0c-0.1,0.2-0.2-0.6-0.2-0.5
		c0.2,0,0.4,0,0.5-0.1c0.2-0.4,0.4-0.2,0.5-0.1c0.1-0.2,0.2-0.4,0.3-0.3c0.1,0,0.2-0.1,0.3,0.2c0.2-0.5,0.4,0.3,0.5-0.1
		c0.1,0.1,0.2,0.1,0.3-0.4c0.1-0.3,0.2-0.4,0.3,0.3c0.2,0.4,0.4,0.6,0.5-0.1c0.1-0.4,0.2-0.2,0.3-0.1c0.1,0.2,0.2,0.4,0.3,0.1
		c0.2,0.1,0.4-0.1,0.5-0.1c0.1-0.4,0.2,0.7,0.4,0.2c0.1,0.2,0.1,0.2,0.2,0.2c0.1,0,0.1-0.2,0.2-0.6c0.1-0.4,0.1-0.6,0.2-0.4
		c0.1,0.1,0.1,0.3,0.2,0.6c0.1,0,0.2-0.2,0.4-0.2c0.1,0.1,0.2-0.6,0.4-0.3c0.1,0.2,0.2-0.6,0.4,0c0.1-0.7,0.2,0.1,0.4,0.2
		c0.1-0.1,0.2,0.1,0.4-0.1c0.1,0.5,0.2,0.2,0.4,0.2c0.1,0.2,0.2,0,0.4-0.1c0.2-0.2,0.5-0.3,0.7-0.2c0.1,0.2,0.2,0.2,0.4-0.2
		c0.1-0.2,0.2-0.5,0.4,0.2c0.2-0.2,0.5-0.2,0.7,0c0.2-0.3,0.5,0,0.7,0c0.2-0.2,0.5-0.3,0.7-0.1c0.1-0.4,0.2,0.4,0.4,0
		c0.1,0.3,0.2,0.1,0.4-0.1c0.1-0.6,0.2,0.5,0.4-0.2c0.1,0.1,0.2,0.1,0.4,0.2c0.1-0.1,0.2-0.2,0.4,0.1c0.1,0,0.2,0,0.4-0.2
		c0.2-0.5,0.5-0.1,0.7-0.1c-0.1-0.6-0.3-0.2-0.4-0.6c-0.1,0.1-0.3-0.3-0.4-0.3c-0.1-0.3-0.3-0.8-0.4-0.3c-0.1-0.1-0.3-0.4-0.4-0.2
		c-0.1,0.1-0.3-0.8-0.4-0.2c-0.1,0.1-0.3-0.4-0.5-0.1c-0.2,0.1-0.3-0.3-0.5-0.1c-0.2-0.1-0.3-0.3-0.5,0c-0.2-0.7-0.4,0-0.7,0.2
		c-0.1-0.3-0.2,0-0.3,0.1c-0.1,0.2-0.2,0.3-0.3-0.3c-0.2-0.4-0.4-0.1-0.7,0.1c-0.2-0.2-0.4,0.2-0.7,0c-0.1,0.1-0.2,0.1-0.3,0.2
		c-0.1-0.5-0.2-0.2-0.3-0.2c-0.1-0.4-0.2,0.2-0.3,0.1c-0.1,0.3-0.2,0.4-0.3-0.1c-0.1-0.1-0.2,0.4-0.3,0.2c-0.1,0.4-0.2,0.4-0.3-0.1
		c-0.1-0.2-0.2-0.5-0.3-0.1c-0.1-0.4-0.2-0.4-0.3,0.1c-0.2,0.6-0.4,0.1-0.7,0c-0.1-0.6-0.2,0.2-0.3,0.2c-0.1,0.1-0.2,0-0.3-0.2
		c-0.1-0.2-0.2-0.1-0.3-0.1c-0.1,0-0.2,0.2-0.3,0c-0.2,0-0.4-0.7-0.7,0.1c-0.1,0.4-0.2,0.1-0.3-0.1c-0.1,0.3-0.2-0.5-0.3,0
		c-0.2,0.8-0.4,0.4-0.7,0c-0.1,0.5-0.2,0.5-0.3,0.2c-0.1,0-0.2,0.6-0.4-0.3c-0.1,0-0.2-0.2-0.4-0.1c-0.1,0-0.2,0.4-0.4,0.1
		c-0.2,0.4-0.5,0.1-0.7,0.2c-0.1,0-0.2-0.1-0.4,0.1c-0.1-0.1-0.2,0.2-0.4-0.2c-0.1,0-0.2,0.2-0.4,0.5c-0.1,0.1-0.2,0-0.4-0.4
		c-0.2,0-0.5,0.6-0.7,0.1c-0.4,0-0.7-0.1-1.1,0.2c-0.4,0.1-0.7-0.1-1.1,0.2c-0.4-0.1-0.7,0.1-1.1,0.2c-0.4,0.3-0.7,0.2-1.1,0.2
		c-0.2,0.4-0.4,0.6-0.6,0.5c-0.1-0.1-0.2,0.6-0.2,0.7c0,0.3-0.1,0.9-0.3,1.1c-0.1,0.1-0.2,0.2-0.3,0.4c-0.1,0.3-0.2,0.4-0.3,0.3
		c-0.2,0.4-0.5,0.1-0.9,0.3c-0.3-0.1-0.7,0.3-1.1,0.1c-0.5,0.1-0.9,0.2-1.4,0c-0.5,0-0.9,0-1.4,0c-3.8,0-7.5,0-11.3,0
		c-1.4,0-2.4-0.3-2.9-1.7c-0.4,0-0.8,0.2-1.2,0.1c-0.4-0.1-0.8-0.2-1.2,0.1c-0.4,0.3-0.8,0.4-1.2,0.1c-0.4,0-0.8,0.3-1.2,0.1
		c-0.4-0.2-0.8-0.1-1.2,0.1c-0.3,0.1-0.6,0.5-0.9,0.6c-0.7,0.3-1.4,0.5-2.2,0.4c-1.1,0-2.2-0.2-3.1,0.5c-0.5,0.1-0.9,0.1-1.4,0.2
		c-0.5-0.1-0.9,0.5-1.4,0.3c-0.5,0.6-0.9,0-1.4,0.3c-0.4,0.2-0.9,0.5-1.3,0.3c-0.4,0.5-0.9-0.4-1.3,0.3c-0.4,0.4-0.9,0.5-1.3,0.3
		c-0.5,0-0.9-0.4-1.4,0.3c-0.5,0.7-0.9,0.1-1.4,0.2c-0.4,0.1-0.8,0.5-1.2,0.2c-0.4,0.5-0.8,0.3-1.2,0.3c-0.4-0.4-0.8,0.2-1.2,0.3
		c-0.4,0-0.8-0.4-1.1,0.2c-0.4,0.1-0.9,0.2-1.3,0.2c-0.4-0.1-0.9-0.6-1.3,0.2c-0.4-0.6-0.9-0.3-1.3,0.2c-0.4-0.4-0.9,0.3-1.3,0.3
		c-0.4-0.1-0.9,0.3-1.3,0.3c-0.4,0.9-0.9,0.1-1.3,0.4c-0.4,0-0.8,0-1.3,0.4c-0.1-0.3-0.3-0.5-0.4,0.1c-0.1,0.4-0.3-0.3-0.3,0.3
		c-0.1,0.5-0.2,0.4-0.4,0.6c-0.3-0.3-0.6-0.4-0.8-0.2c-0.3-1-0.5,0.4-0.7,0.2c-0.2,0.2-0.3,0.7-0.4,0.8c-0.4,0.2-0.8-0.6-1.2-0.5
		c-0.2,0-0.4,0-0.6,0c-0.2-0.1-0.4,0.2-0.6,0c-0.2-0.4-0.4-0.1-0.5,0c-0.2-0.3-0.4,0.2-0.5,0.3c-0.2,0.1-0.4,0.6-0.5,0.2
		c-0.2-0.2-0.4,0.4-0.5,0.2c-0.2,0-0.4-0.1-0.5,0.2c-0.2,0.4-0.4,0.3-0.5,0.2c-0.1-0.2-0.2,0-0.4-0.1c-0.2,0.1-0.3,0.1-0.5,0
		c-0.1-0.2-0.3,0.1-0.4,0.2c-0.1,0.1-0.1,0.2-0.1,0.6c0,0.2,0.1,0.2,0.2,0.5c0.1,0.2,0.2,0.3,0.4,0.3c0.1-0.2,0.3,0.2,0.5,0.2
		c0.2,0,0.3,0.2,0.5-0.1c0.2,0.2,0.4,0.2,0.5,0.1c0.2,0,0.3,0.1,0.5,0c0.2,0,0.3,0,0.5,0s0.3-0.1,0.5-0.2c0.3-0.1,0.6-0.4,0.9-0.8
		c0.1-0.1,0.2-0.2,0.3-0.3c0.1-0.1,0.2-0.2,0.4-0.2c0.1-0.2,0.3-0.3,0.5-0.2c0.2-0.3,0.3,0,0.5,0c0.2,0.5,0.4,0.3,0.5,0.1
		c0.2-0.2,0.4-0.5,0.6-0.2c0.2,0.2,0.4,0.3,0.5,0c0.2,0.5,0.4,0.1,0.6-0.2c0.1,0.1,0.3,0.1,0.4,0c0.1-0.1,0.3-0.2,0.4-0.2
		c0.3-0.2,0.6-0.4,0.8-0.1c0.2,0.9,0.4,0.6,0.5,0.8c0.1,0.2,0,0.4-0.2,0.8c-0.1,0.1-0.2,0.2-0.3,0.3c-0.1,0-0.3,0.2-0.4,0
		c-0.1,0.1-0.3,0.4-0.4,0c-0.1,0-0.3,0-0.4,0c-0.1-0.1-0.1,0.1-0.2,0c-0.3-0.3-0.5,0.1-0.6,0.1c-0.1,0.4-0.2,0.5-0.3,0.4
		c-0.1,0.2-0.1,0.6-0.2,0.5c-0.1,0.6-0.1,0.3-0.3,0.5c-0.2,0.5-0.1,0.6,0.1,0.7c0.2,0.3,0.5,0.3,0.6,0.8c0.1,0.6,0.3,0.2,0.5,0.1
		c0.1,0.2,0.3,0.1,0.4-0.2c0.1-0.4,0.3,0.1,0.4-0.2c0.1,0.1,0.3,0.1,0.4-0.2c0.1,0,0.3-0.3,0.4-0.2c0.2-0.1,0.4-0.2,0.6-0.2
		c0.2,0,0.4,0,0.6-0.1c0.2-0.1,0.4-0.2,0.7-0.2c0.2-0.1,0.4,0,0.7,0c0.4-0.4,0.9-0.2,1.3-0.2c0.4-0.1,0.8-0.3,1.2-0.4
		c0.4,0,0.8-0.3,1.1-0.6c0.4-0.2,0.7-0.6,1-1c0.2-0.2,0.3,0,0.4,0.2c0.2,0.6,0.5,0.4,0.7,0.5c0.3-0.2,0.6-0.2,0.8-0.3
		c0.5-0.1,0.9-0.1,1.4-0.2c0.5-0.1,0.9-0.2,1.4-0.2c0.5,0.2,0.9,0.4,1.4-0.2c0.5,0.3,0.9,0.3,1.4-0.3c0.5-0.3,0.9-0.6,1.4-0.3
		c0.2,0,0.4-0.2,0.6-0.3c0.2,0,0.4,0.2,0.6,0.1c0.2-0.1,0.4,0.3,0.6,0.1c0.2,0.1,0.4,0.3,0.6-0.3c0.2-0.3,0.4-0.5,0.6-0.3
		c0.2-0.4,0.4,0,0.6,0.1c0.2-0.3,0.4,0.2,0.6-0.2c0.2,0.1,0.4,0.1,0.6-0.1c0.2,0.5,0.4-0.1,0.6-0.1c0.2,0.1,0.4-1.1,0.6-0.4
		c-0.1-0.3-0.3-0.2-0.4-0.3c-0.1-0.3-0.3-0.7-0.4,0.1c-0.1-0.6-0.3,0.1-0.4,0.2c-0.1-0.3-0.3,0.4-0.4-0.1c-0.1,0.8-0.1-0.4-0.1,0.1
		c0.1,0.6-0.3,0.2,0-0.2c0.1-0.1,0.3-0.1,0.4-0.1c0.1,0.4,0.3,0,0.4,0.1c0.1,0,0.3,0.4,0.4,0.2c0.1,0,0.3,0,0.4,0
		c0.2-0.3,0.4-0.1,0.6-0.2c0.2-0.6,0.4-0.4,0.6,0c0.2,0.4,0.4-0.3,0.6-0.2c0.2,0.2,0.4-0.3,0.6-0.1c0.2-0.2,0.4,0,0.6-0.2
		c0.2-0.1,0.4,0.4,0.6-0.1c0.2-0.1,0.4-0.1,0.6,0c0.2,0,0.4,0.8,0.6-0.2c0.2-0.2,0.4-0.3,0.6-0.1c0.1,0.3,0.2,0.2,0.3,0.3
		c0.1-0.3,0.2-0.5,0.3-0.4c0.2-0.1,0.4-0.2,0.6-0.2c0.2-0.4,0.4-0.2,0.6,0c0.2,0,0.4,0.1,0.6-0.2c0.2-0.1,0.4,0,0.6,0
		c0.2-0.1,0.4-0.2,0.6,0.1c0.2,0,0.4-0.2,0.6-0.2c0.2,0.2,0.4-0.4,0.6-0.2c0.2,0.1,0.4,0,0.6,0c0.2-0.1,0.4-0.3,0.6-0.3
		c0.2,0,0.4-0.4,0.6,0.1c0.2,0.2,0.5,0.2,0.7-0.1c0.2,0.5,0.5-0.4,0.7-0.1c0.2,0.6,0.5,0.3,0.7,0c0.2,0,0.5-0.4,0.7,0
		c0.2-0.5,0.5,0.2,0.7,0.2c0.2,0.3,0.5-0.3,0.7-0.2c0.2-0.1,0.5,0,0.7,0c0.2,0.3,0.5,0.3,0.7,0c0.2-0.2,0.5-0.2,0.7,0.1
		c0.2,0.1,0.5,0,0.7-0.3c0.2-0.5,0.4-0.4,0.7-0.4c0.2,0,0.4,0,0.7,0c0.4-0.2,0.9-0.8,1.3-0.7c0.1-0.1,0.4-0.1,0.5,0
		c0.4,0.1,0.7,0,1.1,0.4c0.4,0.2,0.8,0.4,1.1,0.2c0.4,0,0.8,0.1,1.1,0.1c0.4,0,0.8-0.1,1.2,0c0.4,0.3,0.8,0,1.2,0
		c0.3-0.1,0.6,0.1,0.8,0c0.2-0.1,0.4-0.3,0.5-0.7c-0.1-0.3-0.2-0.3-0.3-0.5c0.1,0.1,0.2,0.2,0.4,0.1c0.4,0.3,0.7,0,1.1,0.2
		c0.4,0.1,0.7,0,1.1,0c0.4-0.1,0.7-0.3,1.1-0.4c0.2,0,0.4,0,0.6-0.2c0.2,0.2,0.4-0.2,0.6-0.1c0.2-0.2,0.4,0,0.6,0
		c0.2-0.1,0.4-0.4,0.6,0c0.2,0.2,0.4-0.1,0.6-0.1c0.2-0.2,0.4,0.1,0.5-0.5c0.2-0.1,0.4-0.5,0.6,0.2c0.2,0.2,0.4,0.3,0.6,0.1
		c0.2-0.1,0.4-0.2,0.6-0.1c0.2,0.3,0.4,0.3,0.6,0.2c0.2,0.4,0.4-0.4,0.6-0.1c0.2,0.7,0.4-0.2,0.6,0c0.2,0.3,0.4,0.2,0.6,0
		c0.2-0.5,0.4,0,0.6-0.2c0.2-0.1,0.4,0.6,0.6,0.1c0.1,0,0.2-0.2,0.3,0.1c0.1,0.6,0.2,0.2,0.3-0.4c0.2-0.4,0.4,0.1,0.6-0.1
		c0.2,0,0.4-0.4,0.6-0.1c0.2,0,0.4,0.2,0.6-0.2c0.2,0.8,0.4-0.1,0.6,0.2c0.2-0.1,0.3-0.8,0.5-0.1c0.2,0.1,0.3-0.8,0.5,0.1
		c0.2,0.4,0.3,0.7,0.5,0c0.2-0.3,0.3-0.7,0.5-0.1c0.2-0.1,0.3-1.1,0.5,0.1c0.2-0.3,0.3-0.2,0.5-0.2c0.1,0.3,0.2,0.2,0.4,0.1
		c0.1-0.1,0.3-0.3,0.4-0.2c0.2-0.3,0.4-0.5,0.4-0.6c0,0-0.1-0.9-0.3-0.5C228.6,48.9,228.3,48.4,228.1,48.5z"/>
	<g>
		<path d="M10.2,57.9l2.4,11.7H11l-0.7-3.6H6.6l-1.6,3.6H3.2l5.5-11.7H10.2z M7.1,64.7H10l-0.9-4.5L7.1,64.7z"/>
		<path d="M21,58.3l-0.3,1.6c-0.6-0.4-1.3-0.6-2-0.6c-1.7,0-2.3,0.8-2.3,1.7c0,0.6,0.3,1.2,1.5,2c2,1.5,2.7,2.3,2.7,3.8
			c0,1.7-1.4,3-3.7,3c-1,0-2.1-0.3-3-0.8l0.3-1.7c0.7,0.6,1.9,1.1,2.9,1.1c1.2,0,1.9-0.6,1.9-1.5c0-0.8-0.6-1.5-2-2.5
			c-1.4-1-2.2-2.1-2.2-3.3c0-1.7,1.4-3.2,4-3.2C19.4,57.8,20.1,57.9,21,58.3z"/>
		<path d="M29.3,58.3L29,59.8c-0.6-0.4-1.3-0.6-2-0.6c-1.7,0-2.3,0.8-2.3,1.7c0,0.6,0.3,1.2,1.5,2c2,1.5,2.7,2.3,2.7,3.8
			c0,1.7-1.4,3-3.7,3c-1,0-2.1-0.3-3-0.8l0.3-1.7c0.7,0.6,1.9,1.1,2.9,1.1c1.2,0,1.9-0.6,1.9-1.5c0-0.8-0.6-1.5-2-2.5
			c-1.4-1-2.2-2.1-2.2-3.3c0-1.7,1.4-3.2,4-3.2C27.7,57.8,28.4,57.9,29.3,58.3z"/>
		<path d="M33.8,58l-1,6.7c-0.1,0.9-0.1,1.3-0.1,1.5c0,1.2,1,2.1,2.6,2.1c1.9,0,3-1.1,3.3-3.4l1.1-7h1.7l-1.1,7
			c-0.4,2.6-1.7,4.7-5.1,4.7c-2.5,0-4.2-1.4-4.2-3.6c0-0.6,0.1-1.4,0.2-1.8l1-6.4H33.8z"/>
		<path d="M46.5,58c1.5,0,3.7,0.6,3.7,3c0,1.5-1.1,2.6-2.6,2.9c0.2,0.1,0.5,0.3,1.1,1.4l2.2,4.2h-1.8l-1.6-3.2
			c-0.9-1.6-1.3-1.9-2.4-1.9h-0.5l-0.7,5.1H42L43.7,58H46.5z M45.3,59.3l-0.6,3.8h0.8c1.4,0,3-0.4,3-2.1c0-1.1-0.6-1.7-2.4-1.7H45.3
			z"/>
		<path d="M57.8,57.9l2.4,11.7h-1.6l-0.7-3.6h-3.7l-1.6,3.6h-1.7l5.5-11.7H57.8z M54.7,64.7h2.9l-0.9-4.5L54.7,64.7z"/>
		<path d="M63.3,58h0.8l6.1,8.6l1.3-8.6h1.6l-1.8,11.6h-0.9l-6.1-8.5l-1.3,8.5h-1.6L63.3,58z"/>
		<path d="M83.7,57.9l-0.3,1.4c-0.3-0.1-0.7-0.1-1-0.1c-4.2,0-6.6,2.5-6.6,5.6c0,1.8,1.1,3.5,3.1,3.5c1.4,0,2.8-0.6,3.8-1.4
			l-0.2,1.8c-1.1,0.6-2.4,1-3.7,1c-3,0-4.8-2.2-4.8-4.9c0-4.4,3.7-7,8.2-7C82.8,57.8,83.3,57.9,83.7,57.9z"/>
		<path d="M92.4,58l-0.2,1.4h-4.9L86.8,63h4.3l-0.2,1.4h-4.3L86,68.2h6.4l-0.2,1.4h-8.1L85.9,58H92.4z"/>
	</g>
	<path d="M16.3,20.3c5.7,0,9.9,2.3,9.9,8.2c0,5.1-3.2,9.1-10.9,9.1h-3.1l-1.5,10.6H4.9c1.3-9.3,2.7-18.6,4-27.9H16.3z M13,33.2h2
		c3.3,0,5.2-1.6,5.2-4.5c0-2.5-1.8-4.1-4.7-4.1h-1.3L13,33.2z"/>
	<path d="M40.1,20.3c6,0,9.8,2.3,9.8,7.6c0,4.4-2.9,6.9-6.3,7.6c1.2,0.6,2,1.4,3.5,4.5l4,8.2h-6.4l-3.2-6.7
		c-2.1-4.5-3.1-4.8-5.1-4.8h-1l-1.6,11.5h-5.9l3.9-27.9H40.1z M37.1,24.7L36,32.3h2.4c3.3,0,5.4-1.5,5.4-4.1c0-2.4-1.4-3.6-4.5-3.6
		H37.1z"/>
	<path d="M75,20.3l-0.6,4.4H63.4l-1,7h9.6l-0.6,4.4h-9.7l-1.1,7.7h13.8l-0.6,4.4H54.1l4-27.9H75z"/>
	<path d="M88.1,20.6c5.7,0,9.9,2.3,9.9,8.2c0,5.1-3.2,9.1-10.9,9.1h-3.1l-1.5,10.6h-5.9c1.3-9.3,2.7-18.6,4-27.9H88.1z M84.8,33.5h2
		c3.3,0,5.2-1.6,5.2-4.5c0-2.5-1.8-4.1-4.7-4.1H86L84.8,33.5z"/>
	<path d="M112.6,20.3l5.2,28h-6l-1-7.1h-8.3l-3.1,7.1h-6l13.3-28H112.6z M103.9,37.5h6.2l-1.5-10.8L103.9,37.5z"/>
	<path d="M132.2,20.3c6,0,9.8,2.3,9.8,7.6c0,4.4-2.9,6.9-6.3,7.6c1.2,0.6,2,1.4,3.5,4.5l4,8.2h-6.4l-3.2-6.7
		c-2.1-4.5-3.1-4.8-5.1-4.8h-1l-1.6,11.5H120l3.9-27.9H132.2z M129.3,24.7l-1.1,7.7h2.4c3.3,0,5.4-1.5,5.4-4.1
		c0-2.4-1.4-3.6-4.5-3.6H129.3z"/>
	<path d="M156.9,35.8l-0.8,5.3H144l0.8-5.3H156.9z"/>
	<path d="M166,20.3l3.1,17.2l8.1-17.2h6l-13.8,28.2h-3.3l-5.7-28.2H166z"/>
	<path d="M192.4,20.3l-4,27.9h-5.9l4-27.9H192.4z"/>
	<path d="M215.3,20.3l-0.6,4.4h-11.1l-1,7h9.6l-0.6,4.4H202l-1.1,7.7h13.8l-0.6,4.4h-19.7l4-27.9H215.3z"/>
</g>
</svg>
