<?xml version="1.0" encoding="utf-8"?>
<!-- Generator: Adobe Illustrator 26.0.2, SVG Export Plug-In . SVG Version: 6.00 Build 0)  -->
<svg version="1.1" id="Calque_1" xmlns="http://www.w3.org/2000/svg" xmlns:xlink="http://www.w3.org/1999/xlink" x="0px" y="0px"
	 viewBox="0 0 240.1 90" style="enable-background:new 0 0 240.1 90;" xml:space="preserve">
<style type="text/css">
	.st0{fill:none;}
	.st1{fill:#696969;}
	.st2{fill:#9E9E9E;}
	.st3{fill:#7A7A7A;}
	.st4{fill:#242424;}
	.st5{fill:#545454;}
	.st6{fill:#404040;}
	.st7{fill:#BFBFBF;}
	.st8{fill:#ADADAD;}
	.st9{fill:#C9C9C9;}
	.st10{fill:#363636;}
</style>
<rect class="st0" width="240.1" height="90"/>
<g>
	<path class="st1" d="M82.1,67.5c1.1-1.8,1.7-3.9,1.7-6V45L66.6,58.6L82.1,67.5z"/>
	<path class="st2" d="M83.9,45V28.4c-0.1-2.1-0.6-4.2-1.7-6l-15.4,8.9L83.9,45z"/>
	<path class="st3" d="M66.8,58.6L84,45L66.8,31.4c0.6,1.1,1,2.3,1.1,3.6v19.9C67.8,56.2,67.5,57.5,66.8,58.6"/>
	<path class="st4" d="M63.6,80.3l-20.4-8.1V90c2.1,0,4.2-0.5,6.1-1.4L60,82.4L63.6,80.3z"/>
	<path class="st5" d="M66.7,58.6l-3.2,21.7L77.8,72c1.8-1.1,3.3-2.7,4.3-4.6L66.7,58.6z"/>
	<path class="st6" d="M64.2,61.3l-17.2,10c-1.1,0.6-2.4,0.9-3.7,0.9l20.3,8.1l3.2-21.7C66.2,59.7,65.3,60.7,64.2,61.3"/>
	<path class="st7" d="M43.2,17.8V0c-2.1,0-4.2,0.5-6.1,1.5L22.8,9.7L43.2,17.8z"/>
	<path class="st2" d="M19.7,31.4l3.2-21.7L8.6,18c-1.8,1.1-3.3,2.7-4.3,4.6L19.7,31.4z"/>
	<path class="st8" d="M22.2,28.6l17.2-10c1.1-0.6,2.4-0.9,3.7-0.9l0,0L22.8,9.7l-3.2,21.7C20.3,30.3,21.2,29.3,22.2,28.6"/>
	<path class="st8" d="M66.7,31.4l15.4-8.9c-1-1.9-2.5-3.4-4.3-4.6L63.5,9.7L66.7,31.4z"/>
	<path class="st9" d="M49.3,1.5c-1.9-1-4-1.5-6.1-1.5v17.8l20.3-8.1L49.3,1.5z"/>
	<path class="st7" d="M46.8,18.7l17.2,10c1.1,0.7,2,1.6,2.6,2.7L63.6,9.7l-20.4,8.1l0,0C44.5,17.8,45.7,18.1,46.8,18.7"/>
	<path class="st3" d="M19.7,31.4L4.3,22.5c-1.1,1.8-1.7,3.9-1.7,6V45L19.7,31.4z"/>
	<path class="st5" d="M2.5,45v16.5c0.1,2.1,0.6,4.2,1.7,6l15.4-8.9L2.5,45z"/>
	<path class="st1" d="M18.6,55V35c0-1.3,0.4-2.5,1.1-3.6L2.4,45l17.2,13.6C19,57.5,18.6,56.2,18.6,55"/>
	<path class="st6" d="M19.7,58.6L4.3,67.5c1,1.8,2.5,3.4,4.3,4.6l14.3,8.2L19.7,58.6z"/>
	<path d="M37.1,88.5c1.9,1,4,1.5,6.1,1.5V72.2l-20.4,8.1L37.1,88.5z"/>
	<path class="st4" d="M39.5,71.3l-17.2-10c-1.1-0.7-2-1.6-2.6-2.7l3.2,21.7l20.4-8.1C41.9,72.2,40.7,71.9,39.5,71.3"/>
	<path class="st10" d="M113.8,49c-2.1-0.1-4.1,1.1-5.2,2.9c-0.8-2-2.8-3.2-5-2.9c-2,0-3.8,1-4.9,2.7l0,0v-2.3h-4v16.5H99v-8
		c0-2.2,0.3-5.6,3.2-5.6c2.5,0,2.5,2.2,2.5,3.7v9.9h4.3v-8c0-2.2,0.3-5.6,3.2-5.6c2.2,0,2.3,1.7,2.3,4.4v9.2h4.4V55.5
		C119.1,50,115.8,49,113.8,49"/>
	<path class="st10" d="M135.2,49.4v8.1c0,2.1-0.7,5.5-3.8,5.5c-2.8,0-2.8-2.7-2.8-4.8v-8.8h-4.3v10.4c0,3.7,1.7,6.5,5.6,6.5
		c2.1,0,4.1-1,5.4-2.6l0,0V66h4.1V49.4H135.2z"/>
	<path class="st10" d="M154.9,62.6c-0.6,0.3-1.3,0.5-1.9,0.5c-1.6,0-2.1-1.3-2.1-2.7v-7.7h3.8v-3.1h-3.8v-5.2l-4.3,1.4v3.8h-3.2v3.1
		h3.2V61c-0.3,2.7,1.7,5.1,4.3,5.3c0.3,0,0.6,0,0.8,0c1.1,0,2.1-0.1,3.2-0.4L154.9,62.6z"/>
	<path class="st10" d="M208.4,62.6c-0.6,0.3-1.3,0.5-2,0.5c-1.6,0-2-1.3-2-2.7V44.2l-4.3,1.4V61c-0.3,2.7,1.6,5.1,4.3,5.4
		c0.3,0,0.7,0,1,0c1.1,0,2.1-0.1,3.2-0.4L208.4,62.6z"/>
	<path class="st10" d="M220,62.6c-0.6,0.3-1.3,0.5-1.9,0.5c-1.6,0-2.1-1.3-2.1-2.7V44.2l-4.3,1.4V61c-0.3,2.7,1.7,5.1,4.4,5.3
		c0.3,0,0.5,0,0.8,0c1.1,0,2.1-0.1,3.2-0.4L220,62.6z"/>
	<path class="st10" d="M170.7,49.4v8.1c0,2.1-0.7,5.5-3.8,5.5c-2.8-0.1-2.9-2.7-2.9-4.8v-8.8h-4.2v10.4c0,3.7,1.7,6.5,5.6,6.5
		c2.1,0,4.2-0.9,5.5-2.6l0,0V66h4.1V49.4H170.7z"/>
	<path class="st10" d="M183.9,59h11.4c0-5.8-1.7-10-7.9-10c-5.2,0-7.7,3.9-7.7,8.8c0,5.4,3.2,8.6,8.6,8.6c2,0.1,3.9-0.4,5.7-1.3
		v-3.4c-1.6,1-3.5,1.6-5.5,1.7c-2.4,0.2-4.6-1.7-4.7-4.1c0,0,0-0.1,0-0.1 M187.7,52.3c2.4,0,3.4,1.7,3.4,3.9h-7.3
		c0-2.1,1.6-3.8,3.7-3.9C187.6,52.3,187.7,52.3,187.7,52.3"/>
	<path class="st10" d="M226.3,59h11.4c0-5.8-1.7-10-7.9-10c-5.2,0-7.7,3.9-7.7,8.8c0,5.4,3.2,8.6,8.6,8.6c2,0.1,3.9-0.4,5.7-1.3
		v-3.4c-1.6,1-3.5,1.6-5.5,1.7c-2.4,0.2-4.5-1.6-4.7-4c0-0.1,0-0.1,0-0.2 M230.4,52.3c2.4,0,3.4,1.7,3.4,3.9h-7.3
		c-0.1-2,1.5-3.8,3.5-3.9C230.2,52.3,230.3,52.3,230.4,52.3"/>
	<path d="M131,38.5c0-1.2,0-2.5,0-4.1v-2.1c0-4.9-2.1-6.9-7.1-6.9c-2,0-3.9,0.4-5.7,1.2l0.1,3.6c1.5-1.1,3.3-1.7,5.2-1.7
		c2.5,0,3.7,0.9,3.7,3.6h-2.4c-1.9-0.1-3.8,0.3-5.6,1c-1.8,0.8-3,2.7-2.9,4.7c0,3.2,2.9,4.9,5.8,4.9c2.1,0.1,4.1-1,5.2-2.8l0,0
		c0,0.5,0,1.6,0.2,2.5h3.8C131.2,40.9,131,39.7,131,38.5 M126.1,37.9c-0.7,1-1.8,1.5-3,1.5c-1.5,0-2.7-0.6-2.7-2
		c0-2.6,2.8-2.8,4.8-2.8h1.9C127.1,35.7,126.8,36.9,126.1,37.9"/>
	<path d="M143.7,25.2c-2.2,0.2-4.1,1.9-4.5,4.1l0,0v-3.7h-3.9v16.5h4.3V36c0-2.4,0-6.8,3.4-6.8c0.7,0,1.3,0.1,1.9,0.3v-4.3
		L143.7,25.2"/>
	<path d="M183.6,25.3c-4.6-0.2-8.4,3.3-8.6,7.9c0,0.3,0,0.6,0,0.9c0,4.8,3.9,8.6,8.6,8.6s8.6-3.9,8.6-8.6c0.3-4.6-3.2-8.5-7.8-8.7
		C184.2,25.2,183.9,25.2,183.6,25.3 M183.6,39.2c-3.3,0-4.1-3-4.1-5.7c0-2.5,1.3-4.9,4.1-4.9s4.2,2.4,4.2,4.9
		C187.7,36.3,186.9,39.2,183.6,39.2"/>
	<path d="M205,25.2c-2.2-0.1-4.2,0.9-5.4,2.6l0,0v-2.2h-4.1v16.5h4.3V34c0-2.1,0.7-5.5,3.8-5.5c2.8,0,2.8,2.7,2.8,4.8v8.9h4.2V31.7
		C210.6,28,208.8,25.2,205,25.2"/>
	<rect x="214.6" y="25.6" width="4.3" height="16.5"/>
	<rect x="214.6" y="20.4" width="4.3" height="3.3"/>
	<path d="M226.3,35.2h11.4c0-5.8-1.7-10-7.9-10c-5.2,0-7.7,4-7.7,8.8c0,5.4,3.2,8.6,8.6,8.6c2,0.1,3.9-0.4,5.7-1.3v-3.4
		c-1.6,1-3.5,1.6-5.5,1.7c-2.4,0.2-4.5-1.6-4.7-3.9c0-0.1,0-0.2,0-0.3 M230.1,28.4c2.4,0,3.4,1.7,3.4,3.9h-7.3
		C226.5,30.1,227.7,28.4,230.1,28.4"/>
	<path d="M166.5,25.3c-2.1-0.1-4.1,1.1-5.2,2.9c-0.8-1.9-2.8-3.1-4.9-2.9c-2,0-3.8,1-4.9,2.7l0,0v-2.3h-4.1v16.6h4.3v-8.1
		c0-2.2,0.3-5.6,3.2-5.6c2.4,0,2.4,2.2,2.4,3.7v9.9h4.3v-8.1c0-2.2,0.3-5.6,3.2-5.6c2.2,0,2.4,1.7,2.4,4.4v9.2h4.4V31.8
		C171.8,26.2,168.5,25.3,166.5,25.3"/>
	<path d="M108.4,39.5c0,0.7,0.3,1.3,0.8,1.7l1.5,0.9h2.2V19.9l-4.4,1.4v7.4h-9.1V20l-4.5,1.4v18.1c0,0.6,0.3,1.3,0.8,1.7l1.5,0.9
		h2.2v-9.7h9.1L108.4,39.5L108.4,39.5z"/>
</g>
</svg>
