<?xml version="1.0" encoding="utf-8"?>
<!-- Generator: Adobe Illustrator 26.0.2, SVG Export Plug-In . SVG Version: 6.00 Build 0)  -->
<svg version="1.1" id="Calque_1" xmlns="http://www.w3.org/2000/svg" xmlns:xlink="http://www.w3.org/1999/xlink" x="0px" y="0px"
	 viewBox="0 0 240.4 90.2" style="enable-background:new 0 0 240.4 90.2;" xml:space="preserve">
<style type="text/css">
	.st0{fill:none;}
	.st1{opacity:0.8;enable-background:new    ;}
	.st2{opacity:0.5;enable-background:new    ;}
</style>
<rect x="0.1" y="0.1" class="st0" width="240.1" height="90"/>
<g>
	<path d="M62.8,35.9c-0.7-1.1-1.7-2.1-2.9-2.7c-1.4-0.7-2.9-1.1-4.4-1c-1.9,0-3.7,0.5-5.3,1.5c-1.6,1-2.9,2.5-3.8,4.2
		c-0.8,1.7-1.3,3.5-1.4,5.4h3.8v8.9c0,0.5-0.1,1.1-0.1,1.6c0.5,0.4,1,0.8,1.5,1.2c1.6,1,3.4,1.5,5.3,1.5c1.5,0,3-0.3,4.4-1
		c1.2-0.6,2.2-1.5,2.9-2.7v3.3h7.3V32.5h-7.3V35.9z M61.3,48.7c-0.1,0.1-0.1,0.1-0.2,0.2c-2,1.9-5.2,1.8-7.1-0.2
		c-1-1.1-1.5-2.5-1.5-4.3c0-1.8,0.5-3.2,1.5-4.3l0.1-0.1c2-1.9,5.3-1.9,7.2,0.2c1,1.1,1.5,2.5,1.5,4.3
		C62.8,46.2,62.3,47.6,61.3,48.7L61.3,48.7z"/>
	<path d="M89.6,36c-0.7-1.1-1.7-2.1-2.9-2.7c-1.4-0.7-2.9-1-4.4-1c-1.9,0-3.7,0.5-5.3,1.5c-1.6,1-2.9,2.5-3.8,4.2
		c-0.9,1.8-1.4,4-1.4,6.4c0,2.2,0.4,4.4,1.4,6.4c0.8,1.7,2.1,3.2,3.8,4.3c1.6,1,3.4,1.5,5.3,1.5c1.5,0,3-0.3,4.4-1
		c1.2-0.6,2.2-1.6,2.9-2.7v3.4c0,1.9-0.4,3.3-1.3,4.1c-0.9,0.9-2.1,1.3-3.6,1.3c-1.1,0-2.2-0.2-3.1-0.8c-0.8-0.5-1.4-1.2-1.6-2.1
		h-7.2c0.3,2.8,1.6,5.1,3.7,6.7s5,2.5,8.5,2.5c2.6,0,4.8-0.5,6.6-1.6c1.7-1,3.1-2.5,3.9-4.2c0.9-1.8,1.3-3.9,1.3-5.9V32.6h-7.3V36z
		 M88.1,48.7c-0.1,0.1-0.1,0.1-0.2,0.2c-2,1.9-5.2,1.8-7.1-0.2c-1-1.1-1.5-2.5-1.5-4.3c0-1.8,0.5-3.2,1.5-4.3l0.1-0.1
		c2-1.9,5.3-1.9,7.2,0.1l0,0c1,1.1,1.5,2.5,1.5,4.3C89.6,46.3,89.1,47.7,88.1,48.7z"/>
	<path d="M114.4,32.4c-1.5,0-2.9,0.3-4.2,0.9c-1.2,0.6-2.2,1.4-3,2.5v-3.1H100v23.7h7.3V43.4c0-1.6,0.4-2.8,1.2-3.7s1.9-1.3,3.3-1.3
		c1.4,0,2.5,0.4,3.3,1.3c0.8,0.9,1.2,2.1,1.2,3.7v12.9h7.2V42.5c0-3.1-0.8-5.6-2.5-7.4S117.2,32.4,114.4,32.4z"/>
	<path d="M143.6,33.7c-4-2-8.6-2-12.6,0c-1.8,1-3.4,2.5-4.4,4.3c-1.1,2-1.7,4.2-1.6,6.4c0,2.5,0.5,4.6,1.6,6.4
		c1,1.8,2.5,3.3,4.4,4.2c1.9,1,4.1,1.5,6.3,1.5c2.2,0,4.4-0.5,6.3-1.5c1.9-1,3.4-2.5,4.5-4.3c1.1-2,1.7-4.2,1.6-6.4
		c0-2.2-0.5-4.5-1.6-6.4C147,36.2,145.5,34.7,143.6,33.7z M140.8,48.8c-0.9,1-2.2,1.5-3.5,1.5c-1.3,0-2.6-0.5-3.5-1.5
		c-0.9-1-1.4-2.4-1.4-4.4c0-1.9,0.5-3.4,1.4-4.4c0.1-0.1,0.1-0.1,0.2-0.2c1.9-1.8,5-1.7,6.8,0.2c0.9,1,1.4,2.5,1.4,4.4
		S141.8,47.8,140.8,48.8z"/>
	<rect x="151.4" y="24.9" width="7.3" height="31.4"/>
	<path d="M165.4,22.3c-1.1,0-2.3,0.4-3.1,1.1c-0.8,0.7-1.2,1.8-1.2,2.8c0,1.1,0.4,2.1,1.2,2.8c0.8,0.8,2,1.2,3.1,1.1
		c1.1,0,2.2-0.4,3.1-1.1c0.8-0.7,1.2-1.7,1.2-2.8c0-1.1-0.4-2.1-1.2-2.8C167.7,22.7,166.6,22.3,165.4,22.3z"/>
	<rect x="161.8" y="32.6" width="7.3" height="23.7"/>
	<path d="M188.5,36c-0.7-1.1-1.7-2.1-2.9-2.7c-1.4-0.7-2.9-1.1-4.4-1c-1.9,0-3.7,0.5-5.3,1.5c-1.6,1-2.9,2.5-3.8,4.2
		c-1,2-1.4,4.2-1.4,6.4c0,2.2,0.4,4.4,1.4,6.4c0.8,1.7,2.1,3.2,3.8,4.3c1.6,1,3.4,1.5,5.3,1.5c1.5,0,3-0.3,4.4-1
		c1.2-0.6,2.2-1.5,2.9-2.7v3.3h7.3V32.6h-7.3V36z M186.9,48.8c-0.1,0.1-0.1,0.1-0.2,0.2c-2,1.9-5.2,1.8-7.1-0.2
		c-1-1.1-1.5-2.5-1.5-4.3s0.5-3.2,1.5-4.3l0.1-0.1c2-1.9,5.3-1.9,7.2,0.1l0,0c1,1.1,1.5,2.5,1.5,4.3C188.5,46.3,188,47.7,186.9,48.8
		L186.9,48.8z"/>
	<path class="st1" d="M202.2,48.7c-1.1,0-2.3,0.4-3.1,1.1c-0.8,0.7-1.2,1.8-1.2,2.8c0,1.1,0.4,2.1,1.2,2.8c0.9,0.8,2,1.2,3.1,1.1
		c1.1,0,2.2-0.4,3.1-1.1c0.8-0.7,1.2-1.7,1.2-2.8c0-1.1-0.4-2.1-1.2-2.8C204.5,49.1,203.4,48.7,202.2,48.7z"/>
	<path class="st1" d="M216.7,32.6v-0.2c0-1.2,0.3-2.1,0.9-2.6c0.6-0.5,1.5-0.7,2.9-0.6v-6.2c-0.4,0-0.8,0-1.2,0
		c-3.2,0-5.7,0.8-7.3,2.3c-1.7,1.5-2.5,3.7-2.5,6.6v0.7h-2.6v6h2.6v17.6h7.3V38.6h3.9v-6H216.7z"/>
	<path class="st1" d="M232.3,33.5c-1.3,0.8-2.4,1.8-3.2,3.1v-3.9h-7.3v23.7h7.3v-11c0-1.9,0.5-3.3,1.4-4.1c0.9-0.8,2.3-1.2,4.1-1.2
		h2v-7.7C235,32.3,233.6,32.7,232.3,33.5z"/>
	<path d="M43.6,43.3h0.1v-0.9c0-3.2-0.9-5.6-2.6-7.4c-1.7-1.8-4.1-2.7-7-2.7c-1.6,0-3.2,0.4-4.6,1.2c-1.4,0.8-2.5,1.9-3.4,3.2
		c-0.8-1.4-1.9-2.5-3.3-3.3c-1.5-0.8-3.1-1.2-4.8-1.1c-1.4,0-2.8,0.3-4,0.9c-1.1,0.5-2.1,1.3-2.9,2.4v-3H3.8v23.7h7.3V43.4
		c0-1.5,0.4-2.7,1.2-3.5c0.8-0.8,1.9-1.3,3.3-1.3c1.4,0,2.5,0.4,3.3,1.3c0.8,0.8,1.2,2,1.2,3.5v12.9h7.2V43.4c0-1.5,0.4-2.7,1.2-3.5
		c0.8-0.8,1.9-1.3,3.3-1.3c1.4,0,2.5,0.4,3.3,1.3c0.8,0.8,1.2,2,1.2,3.5v0.6c1.1-0.5,2.3-0.7,3.5-0.7L43.6,43.3z"/>
	<path class="st1" d="M45.1,43.3H40c-1.2,0-2.4,0.2-3.5,0.7l-0.1,0c-3.4,1.5-5.6,4.8-5.6,8.4v8.9l5.6-5.6l7.2-7.2l1.7-1.7l3.6-3.6
		H45.1z"/>
	<path d="M49,43.4L49,43.4l0,8.9c0,0.5-0.1,1.1-0.1,1.6l0,0c0.1-0.5,0.1-1.1,0.1-1.6L49,43.4z"/>
	<path class="st2" d="M48.9,43.4l-3.6,3.6l-1.7,1.7l-7.2,7.2l-5.6,5.6v0h8.9c4.5,0,8.3-3.2,9-7.6h0c0.1-0.5,0.1-1.1,0.1-1.6
		L48.9,43.4z"/>
</g>
</svg>
