<?xml version="1.0" encoding="utf-8"?>
<!-- Generator: Adobe Illustrator 26.0.2, SVG Export Plug-In . SVG Version: 6.00 Build 0)  -->
<svg version="1.1" id="Calque_1" xmlns="http://www.w3.org/2000/svg" xmlns:xlink="http://www.w3.org/1999/xlink" x="0px" y="0px"
	 viewBox="0 0 240.4 90.2" style="enable-background:new 0 0 240.4 90.2;" xml:space="preserve">
<style type="text/css">
	.st0{fill:none;}
	.st1{fill:url(#SVGID_1_);}
	.st2{fill:url(#SVGID_00000020370273740543988360000011220306231877242534_);}
	.st3{fill:url(#SVGID_00000129182639561839449340000010824984192324201148_);}
	.st4{fill:url(#SVGID_00000086658233648243876530000001256627678635910075_);}
	.st5{fill:url(#SVGID_00000106836533238492554860000003871049496686464159_);}
	.st6{fill:url(#SVGID_00000075877075434114597010000008387895451680002228_);}
	.st7{fill:url(#SVGID_00000062161482409874644130000005284941272163492255_);}
	.st8{fill:url(#SVGID_00000125576161885879897010000007265312126319473561_);}
	.st9{fill:url(#SVGID_00000183954105843499303280000007727688504689149884_);}
</style>
<rect x="0.1" y="0.1" class="st0" width="240.1" height="90"/>
<g>
	
		<linearGradient id="SVGID_1_" gradientUnits="userSpaceOnUse" x1="8.7576" y1="344.1905" x2="236.3062" y2="284.6516" gradientTransform="matrix(1 0 0 1 -4.9 -282.32)">
		<stop  offset="0" style="stop-color:#000000"/>
		<stop  offset="1" style="stop-color:#6E6E6E"/>
	</linearGradient>
	<path class="st1" d="M59.2,43.6v-8.5c0-7.8,4.8-11.7,13.9-11.2v7.8c-3.5-0.2-4.8,0.9-4.8,4V36h4.9v7.6h-4.9v22.3h-9.2V43.6z"/>
	
		<linearGradient id="SVGID_00000113312575799651015940000015479533245026811817_" gradientUnits="userSpaceOnUse" x1="11.5175" y1="354.733" x2="239.0633" y2="295.1941" gradientTransform="matrix(1 0 0 1 -4.9 -282.32)">
		<stop  offset="0" style="stop-color:#000000"/>
		<stop  offset="1" style="stop-color:#6E6E6E"/>
	</linearGradient>
	<path style="fill:url(#SVGID_00000113312575799651015940000015479533245026811817_);" d="M88.5,66.3c-8.8,0-15.4-5.9-15.4-15.4
		s6.8-15.4,15.5-15.4s15.5,5.9,15.5,15.4S97.3,66.3,88.5,66.3z M88.5,58.4c3.3,0,6.3-2.4,6.3-7.4s-3-7.4-6.2-7.4
		c-3.3,0-6.2,2.4-6.2,7.4S85.2,58.4,88.5,58.4L88.5,58.4z"/>
	
		<linearGradient id="SVGID_00000119118597187776984890000011711069595807550900_" gradientUnits="userSpaceOnUse" x1="12.9462" y1="360.2049" x2="240.4948" y2="300.666" gradientTransform="matrix(1 0 0 1 -4.9 -282.32)">
		<stop  offset="0" style="stop-color:#000000"/>
		<stop  offset="1" style="stop-color:#6E6E6E"/>
	</linearGradient>
	<path style="fill:url(#SVGID_00000119118597187776984890000011711069595807550900_);" d="M115.5,65.9h-9.2V36h9.2v5
		c2.1-3.1,5.4-5.3,9.4-5.3v9.7h-2.5c-4.3,0-6.9,1.5-6.9,6.6L115.5,65.9z"/>
	
		<linearGradient id="SVGID_00000116947949130969092910000011327806341399590273_" gradientUnits="userSpaceOnUse" x1="14.8011" y1="367.2788" x2="242.3469" y2="307.7399" gradientTransform="matrix(1 0 0 1 -4.9 -282.32)">
		<stop  offset="0" style="stop-color:#000000"/>
		<stop  offset="1" style="stop-color:#6E6E6E"/>
	</linearGradient>
	<path style="fill:url(#SVGID_00000116947949130969092910000011327806341399590273_);" d="M139.9,66.3c-8.8,0-15.1-5.9-15.1-15.4
		s6.2-15.4,15.1-15.4c8.7,0,14.9,5.8,14.9,14.9c0,0.9-0.1,1.8-0.2,2.7h-20.7c0.3,3.9,2.7,5.7,5.7,5.7c2.6,0,4-1.3,4.8-2.9h9.8
		C152.7,61.8,147.4,66.3,139.9,66.3z M134,48.1h11.5c0-3.3-2.6-5.1-5.6-5.1C136.7,42.9,134.5,44.7,134,48.1z"/>
	
		<linearGradient id="SVGID_00000164495638789061222720000002380964219615617942_" gradientUnits="userSpaceOnUse" x1="16.4181" y1="373.4581" x2="243.961" y2="313.9192" gradientTransform="matrix(1 0 0 1 -4.9 -282.32)">
		<stop  offset="0" style="stop-color:#000000"/>
		<stop  offset="1" style="stop-color:#6E6E6E"/>
	</linearGradient>
	<path style="fill:url(#SVGID_00000164495638789061222720000002380964219615617942_);" d="M163.9,36l6.5,21.3l6.5-21.3h9.8L176,65.9
		h-11.3L154.1,36H163.9z"/>
	
		<linearGradient id="SVGID_00000147211120536329013630000003533533227011121299_" gradientUnits="userSpaceOnUse" x1="18.7187" y1="382.2689" x2="246.2673" y2="322.7243" gradientTransform="matrix(1 0 0 1 -4.9 -282.32)">
		<stop  offset="0" style="stop-color:#000000"/>
		<stop  offset="1" style="stop-color:#6E6E6E"/>
	</linearGradient>
	<path style="fill:url(#SVGID_00000147211120536329013630000003533533227011121299_);" d="M201.1,66.3c-8.8,0-15.1-5.9-15.1-15.4
		s6.2-15.4,15.1-15.4c8.7,0,14.9,5.8,14.9,14.9c0,0.9-0.1,1.8-0.2,2.7h-20.7c0.3,3.9,2.7,5.7,5.7,5.7c2.6,0,4-1.3,4.8-2.9h9.8
		C213.9,61.8,208.6,66.3,201.1,66.3z M195.2,48.1h11.5c0-3.3-2.6-5.1-5.6-5.1S195.7,44.7,195.2,48.1z"/>
	
		<linearGradient id="SVGID_00000136398367829706376880000008426860777364896702_" gradientUnits="userSpaceOnUse" x1="20.1103" y1="387.578" x2="247.6589" y2="328.0391" gradientTransform="matrix(1 0 0 1 -4.9 -282.32)">
		<stop  offset="0" style="stop-color:#000000"/>
		<stop  offset="1" style="stop-color:#6E6E6E"/>
	</linearGradient>
	<path style="fill:url(#SVGID_00000136398367829706376880000008426860777364896702_);" d="M227.3,65.9h-9.2V36h9.2v5
		c2.1-3.1,5.4-5.3,9.4-5.3v9.7h-2.5c-4.3,0-6.9,1.5-6.9,6.6V65.9z"/>
	
		<linearGradient id="SVGID_00000173843913683038630170000015170467336002318988_" gradientUnits="userSpaceOnUse" x1="8.796" y1="343.3427" x2="44.6662" y2="307.4725" gradientTransform="matrix(1 0 0 1 0 -278)">
		<stop  offset="0" style="stop-color:#000000"/>
		<stop  offset="1" style="stop-color:#6E6E6E"/>
	</linearGradient>
	<polygon style="fill:url(#SVGID_00000173843913683038630170000015170467336002318988_);" points="44.4,39.9 40.1,35.5 35.3,30.8 
		31.6,27.1 28.9,24.3 28.9,34.4 30.3,35.8 35,40.5 39.4,44.9 35,49.3 28.9,55.4 28.9,66.2 40.4,54.7 44.8,50.3 49.8,45.2 	"/>
	
		<linearGradient id="SVGID_00000070832817390342130750000016237415432147431871_" gradientUnits="userSpaceOnUse" x1="6.4803" y1="341.0299" x2="42.3534" y2="305.154" gradientTransform="matrix(1 0 0 1 0 -278)">
		<stop  offset="0" style="stop-color:#000000"/>
		<stop  offset="1" style="stop-color:#6E6E6E"/>
	</linearGradient>
	<polygon style="fill:url(#SVGID_00000070832817390342130750000016237415432147431871_);" points="28.9,43.2 25.9,40.2 24.6,41.5 
		17.5,48.6 13.8,44.9 22.2,36.5 24.6,34.1 24.6,24 21.5,27.1 17.1,31.4 3.7,44.9 24.6,65.9 24.6,55.7 24.6,50.9 28.9,46.6 
		30.6,44.9 	"/>
</g>
</svg>
