<?xml version="1.0" encoding="utf-8"?>
<!-- Generator: Adobe Illustrator 26.0.2, SVG Export Plug-In . SVG Version: 6.00 Build 0)  -->
<svg version="1.1" id="Calque_1" xmlns="http://www.w3.org/2000/svg" xmlns:xlink="http://www.w3.org/1999/xlink" x="0px" y="0px"
	 viewBox="0 0 240.4 90.2" style="enable-background:new 0 0 240.4 90.2;" xml:space="preserve">
<style type="text/css">
	.st0{fill:none;}
	.st1{fill:#171717;}
</style>
<rect x="0.1" y="0.1" class="st0" width="240.1" height="90"/>
<g>
	<path d="M9.8,56.1c-1.7-0.7-3.2-1.8-4.2-3.3c-1.1-1.5-1.7-3.3-1.7-5.1h8c0.1,1.1,0.5,2,1.2,2.6c0.7,0.6,1.7,0.9,2.6,0.9
		c1.1,0,2-0.3,2.6-0.8c0.6-0.5,1-1.3,1-2.1c0-0.7-0.3-1.4-0.8-1.9c-0.5-0.5-1.2-0.9-1.9-1.2c-1-0.4-2.1-0.8-3.2-1.1
		c-1.7-0.5-3.3-1.1-4.8-1.8c-1.3-0.6-2.4-1.6-3.2-2.7c-0.9-1.2-1.3-2.7-1.3-4.7c0-2.9,1-5.1,3.1-6.7c2.1-1.6,4.8-2.4,8.1-2.4
		c3.4,0,6.1,0.8,8.2,2.4c2.1,1.6,3.2,3.9,3.3,6.8h-8.1c0-0.9-0.4-1.7-1.1-2.3c-0.7-0.6-1.6-0.9-2.6-0.9c-0.8,0-1.6,0.2-2.2,0.7
		c-0.5,0.5-0.8,1.2-0.8,2.1c0,1,0.5,1.8,1.4,2.3s2.4,1.1,4.4,1.8c1.7,0.5,3.3,1.2,4.8,1.9c1.3,0.6,2.4,1.5,3.2,2.7
		c0.9,1.2,1.3,2.7,1.3,4.5c0,1.7-0.4,3.3-1.3,4.8c-0.9,1.5-2.3,2.7-3.9,3.4c-1.7,0.9-3.7,1.3-6,1.3C13.7,57.2,11.7,56.8,9.8,56.1z"
		/>
	<path d="M36.8,32.5v24.4h-7.5V32.5C29.4,32.5,36.8,32.5,36.8,32.5z"/>
	<path d="M78.4,35c1.8,1.8,2.7,4.4,2.7,7.6v14.2h-7.4V43.6c0-1.6-0.4-2.8-1.3-3.7c-0.8-0.9-2-1.3-3.4-1.3s-2.6,0.4-3.4,1.3
		c-0.8,0.9-1.3,2.1-1.3,3.7v13.2h-7.4V43.6c0-1.6-0.4-2.8-1.3-3.7c-0.8-0.9-2-1.3-3.4-1.3c-1.5,0-2.6,0.4-3.4,1.3
		c-0.8,0.9-1.2,2.1-1.3,3.7v13.2H40V32.5h7.5v3.1c0.8-1,1.8-1.9,3-2.4c1.3-0.6,2.7-0.9,4.1-0.9c1.7,0,3.4,0.4,4.9,1.2
		c1.4,0.8,2.6,1.9,3.4,3.4c0.9-1.4,2.1-2.5,3.5-3.3c1.5-0.8,3.1-1.3,4.8-1.3C74.2,32.2,76.6,33.1,78.4,35z"/>
	<path d="M108.2,32.5v24.4h-7.5v-3.3c-0.8,1.1-1.9,2-3.1,2.6c-1.3,0.7-2.8,1-4.3,1c-1.7,0-3.4-0.4-4.9-1.3c-1.4-0.9-2.6-2.1-3.3-3.6
		c-0.8-1.7-1.2-3.6-1.2-5.5V32.5h7.4v13.2c0,1.6,0.4,2.9,1.3,3.8c0.9,0.9,2,1.3,3.4,1.3c1.5,0,2.6-0.5,3.5-1.3
		c0.9-0.9,1.3-2.2,1.3-3.8V32.5C100.7,32.5,108.2,32.5,108.2,32.5z"/>
	<path d="M118.8,24.5v32.3h-7.5V24.5H118.8z"/>
	<path class="st1" d="M122,38c0.9-1.8,2.2-3.3,3.9-4.4c1.6-1,3.5-1.5,5.4-1.5c1.6,0,3.1,0.3,4.5,1.1c1.2,0.6,2.3,1.6,3,2.7v-3.5h7.5
		v24.4h-7.5v-3.4c-0.8,1.2-1.8,2.1-3,2.7c-1.4,0.7-2.9,1.1-4.5,1.1c-1.9,0-3.8-0.5-5.4-1.5c-1.7-1.1-3-2.6-3.9-4.4
		c-1-2.1-1.5-4.3-1.4-6.6C120.6,42.1,121,39.9,122,38z M137.3,40.2c-2-2.1-5.3-2.2-7.4-0.1c-0.1,0-0.1,0.1-0.1,0.1
		c-1,1.1-1.5,2.5-1.5,4.4s0.5,3.3,1.5,4.4c2,2.1,5.2,2.2,7.4,0.2c0.1-0.1,0.1-0.1,0.2-0.2c1-1.1,1.5-2.5,1.5-4.4
		S138.3,41.3,137.3,40.2z"/>
	<path class="st1" d="M153.7,56.1c-1.5-0.7-2.9-1.7-3.9-3c-0.9-1.2-1.5-2.7-1.6-4.2h7.4c0.1,0.8,0.5,1.6,1.2,2.1
		c0.7,0.5,1.7,0.8,2.6,0.8c0.9,0,1.7-0.2,2.2-0.5c0.5-0.3,0.8-0.9,0.8-1.4c0-0.7-0.4-1.2-1.1-1.5c-1.1-0.5-2.3-0.8-3.5-1.1
		c-1.5-0.3-2.9-0.8-4.4-1.3c-1.2-0.5-2.2-1.2-3-2.1c-0.9-1-1.3-2.3-1.3-3.9c0-1.4,0.4-2.7,1.2-3.8c0.9-1.2,2.1-2.2,3.4-2.7
		c1.7-0.7,3.5-1.1,5.4-1c3.1,0,5.5,0.8,7.2,2.3c1.8,1.5,2.8,3.5,3,6h-6.9c-0.1-0.8-0.5-1.5-1.1-2c-0.7-0.5-1.6-0.8-2.5-0.7
		c-0.9,0-1.5,0.2-2,0.5c-0.5,0.3-0.7,0.8-0.7,1.4c0,0.7,0.4,1.2,1.1,1.6c1.1,0.5,2.3,0.8,3.5,1c1.5,0.4,3,0.8,4.4,1.4
		c1.2,0.5,2.2,1.2,3,2.2c0.9,1,1.3,2.3,1.3,4.1c0,1.4-0.4,2.7-1.2,3.8c-0.9,1.2-2.1,2.1-3.5,2.7c-1.7,0.7-3.4,1-5.2,1
		C157.5,57.2,155.5,56.8,153.7,56.1z"/>
	<path class="st1" d="M175.9,56.1c-1.5-0.7-2.9-1.7-3.9-3c-0.9-1.2-1.5-2.7-1.6-4.2h7.4c0.1,0.8,0.5,1.6,1.2,2.1
		c0.7,0.5,1.7,0.8,2.6,0.8c0.9,0,1.7-0.2,2.2-0.5c0.5-0.3,0.8-0.9,0.8-1.4c0-0.7-0.4-1.2-1.1-1.5c-1.1-0.5-2.3-0.8-3.5-1.1
		c-1.5-0.3-2.9-0.8-4.4-1.3c-1.2-0.5-2.2-1.2-3-2.1c-0.9-1-1.3-2.3-1.3-3.9c0-1.4,0.4-2.7,1.1-3.8c0.9-1.2,2.1-2.1,3.4-2.7
		c1.7-0.7,3.5-1.1,5.4-1c3.1,0,5.5,0.8,7.2,2.3c1.8,1.5,2.8,3.5,3,6h-6.9c-0.1-0.8-0.5-1.5-1.1-2c-0.7-0.5-1.6-0.8-2.5-0.7
		c-0.9,0-1.5,0.2-2,0.5c-0.5,0.3-0.7,0.8-0.7,1.4c0,0.7,0.4,1.2,1.1,1.6c1.1,0.5,2.3,0.8,3.5,1.1c1.5,0.4,3,0.8,4.4,1.4
		c1.2,0.5,2.2,1.2,3,2.2c0.9,1,1.3,2.3,1.3,4.1c0,1.4-0.4,2.7-1.2,3.8c-0.9,1.2-2.1,2.1-3.5,2.6c-1.7,0.7-3.4,1-5.2,1
		C179.6,57.2,177.7,56.9,175.9,56.1z"/>
	<path class="st1" d="M217.9,32.5v24.4h-7.5v-3.3c-0.8,1.1-1.9,2-3.1,2.6c-1.3,0.7-2.8,1-4.3,1c-1.7,0-3.4-0.4-4.9-1.3
		c-1.4-0.9-2.6-2.1-3.3-3.6c-0.8-1.7-1.2-3.6-1.2-5.5V32.5h7.4v13.2c0,1.6,0.4,2.9,1.3,3.8c0.9,0.9,2,1.3,3.4,1.3
		c1.5,0,2.6-0.5,3.5-1.3c0.9-0.9,1.3-2.2,1.3-3.8V32.5C210.4,32.5,217.9,32.5,217.9,32.5z"/>
	<path class="st1" d="M231.8,33.4c1.3-0.8,2.8-1.2,4.4-1.1v7.9h-2.1c-1.9,0-3.3,0.4-4.2,1.2c-0.9,0.8-1.4,2.2-1.4,4.2v11.3h-7.4
		V32.5h7.5v4.1C229.4,35.3,230.5,34.2,231.8,33.4z"/>
	<path d="M165.4,63.1c3.1,0,5.5,2.3,5.5,6c0,3.6-2.4,6-5.5,6c-2.1,0-3.6-1.1-4.3-2.3v2.1h-1.9V59.2h1.9v6.2
		C161.8,64.2,163.4,63.1,165.4,63.1z M165,64.8c-2.1,0-3.9,1.6-3.9,4.3c0,2.7,1.9,4.3,3.9,4.3c2.1,0,3.9-1.6,3.9-4.3
		S167.2,64.8,165,64.8z"/>
	<path d="M181.5,63.3h2l-7,17.1h-2l2.3-5.6l-4.7-11.5h2.2l3.7,9.4L181.5,63.3z"/>
	<path d="M196.1,75.1c-3.3,0-5.7-2.3-5.7-6c0-3.7,2.3-6,5.7-6s5.6,2.4,5.6,5.6c0,0.4,0,0.8-0.1,1.2h-9.3c0.1,2.3,1.8,3.7,3.8,3.7
		c1.7,0,2.9-0.9,3.3-2.1h2.1C200.9,73.5,199,75.1,196.1,75.1z M192.4,68.3h7.3c0-2.3-1.7-3.5-3.7-3.5
		C194.1,64.7,192.6,66,192.4,68.3L192.4,68.3z"/>
	<path d="M204.2,59.2h1.9v15.7h-1.9V59.2z"/>
	<path d="M214.5,75.1c-3.3,0-5.8-2.3-5.8-6c0-3.7,2.6-6,5.9-6c3.3,0,5.9,2.3,5.9,6S217.8,75.1,214.5,75.1z M214.5,73.4
		c2,0,4-1.4,4-4.3c0-3-1.9-4.3-3.9-4.3s-3.9,1.4-3.9,4.3S212.5,73.4,214.5,73.4L214.5,73.4z"/>
	<path d="M221.1,60.6c0-0.6,0.5-1.1,1.1-1.1s1.1,0.5,1.1,1.1c0,0.6-0.5,1.1-1.1,1.1C221.7,61.8,221.1,61.3,221.1,60.6L221.1,60.6z
		 M223,63.3h1.9v11.6H223V63.3z M224.6,60.6c0-0.6,0.5-1.1,1.1-1.1h0c0.6,0,1.1,0.5,1.1,1.1c0,0.6-0.5,1.1-1.1,1.1l0,0
		C225.1,61.8,224.6,61.3,224.6,60.6C224.6,60.7,224.6,60.6,224.6,60.6z"/>
	<path d="M232.3,75.1c-2.7,0-4.6-1.5-4.8-3.6h2c0.1,1.1,1.1,2,2.7,2c1.5,0,2.4-0.8,2.4-1.7c0-2.6-6.9-1.1-6.9-5.4
		c0-1.8,1.7-3.3,4.2-3.3c2.6,0,4.2,1.4,4.4,3.7h-1.9c-0.1-1.2-1-2-2.5-2c-1.4,0-2.3,0.7-2.3,1.6c0,2.8,6.7,1.3,6.8,5.4
		C236.6,73.7,234.9,75.1,232.3,75.1z"/>
	<g>
		<path d="M28.7,25.6c0-2.3,1.8-4.1,4.4-4.1c2.6,0,4.4,1.8,4.4,4.1c0,2.2-1.8,4-4.4,4C30.5,29.7,28.7,27.9,28.7,25.6z"/>
	</g>
</g>
</svg>
