<?xml version="1.0" encoding="utf-8"?>
<!-- Generator: Adobe Illustrator 26.0.2, SVG Export Plug-In . SVG Version: 6.00 Build 0)  -->
<svg version="1.1" id="Calque_1" xmlns="http://www.w3.org/2000/svg" xmlns:xlink="http://www.w3.org/1999/xlink" x="0px" y="0px"
	 viewBox="0 0 240.1 90" style="enable-background:new 0 0 240.1 90;" xml:space="preserve">
<style type="text/css">
	.st0{fill:none;}
	.st1{fill:#303030;}
	.st2{fill:#030303;}
	.st3{fill:#080808;}
</style>
<rect class="st0" width="240.1" height="90"/>
<path class="st1" d="M78.8,23.7c0,5.1,0.1,10.1,0.3,15.2c0.1,4.2,0.3,8.4,0.7,12.5c0,1.4,0.2,2.7,0.7,4c0.3-0.6,0.5-1.3,0.5-2
	c0.5-6.7,0.6-13.4,0.4-20c-0.1-3.9-0.3-7.8,0-11.8c-0.1-0.6,0.1-1.2,0.6-1.6c4.5-3.7,9.4-7.2,14.4-10.2c1.2-0.8,2.7-1,4-0.4
	c6.3,2.6,12.8,5,19.1,7.5c0.4,0.1,0.7,0.5,0.7,0.9c0,7.3,0,14.5,0,21.8c0,0.4-0.2,0.8-0.6,1c-5.4,3-10.8,6.1-16.2,9.3
	c-1.6,0.8-3,1.8-4.4,2.9c0.3,0.1,0.7,0,1-0.2c4.7-2.1,9.3-4.4,14-6.6c3.3-1.6,6.6-3.1,9.8-4.8c0.8-0.6,1.9-0.5,2.7,0.1
	c1.7,1.1,3.5,2.1,5.3,2.9c1.1,0.6,2,0,2-1.2v-1.6c0-0.4,0.1-0.6,0.6-0.6c1.5,0,3.1,0,4.6,0c0.6,0,0.7,0.2,0.6,0.7c0,1.1,0,2.3,0,3.4
	c0,2,0.4,2.8,2.2,3.5c1.9,0.8,3.8,1.8,5.6,2.8c2.3,1.4,4.6,2.8,7,4.2c-2.6,0.4-3.4,1.2-2.9,3.5c0,0.6,0.6,1.1,1.2,1.1c0,0,0,0,0,0
	h0.1c0.5,0,0.9-0.4,1-0.9c0-0.1,0-0.1,0-0.2c-0.1-0.9,0.4-0.9,1-0.9c1.6,0,3.3,0,4.9,0c0.6,0.1,1.1-0.2,1.3-0.8
	c0.2-0.6,0-1.3-0.6-1.6c-0.4-0.3-0.8-0.5-1.3-0.7c-1.8-0.8-3.5-1.7-5.1-2.6c-3.7-2.2-7.3-4.7-11.4-6.2c-0.5-0.2-0.6-0.6-0.6-1.1
	c0-1.5,0-3.1,0-4.6c0.1-1-0.6-1.9-1.6-2c-0.1,0-0.2,0-0.3,0c-2.3,0-4.6,0-6.9,0c-1-0.1-1.8,0.7-1.9,1.7c0,0,0,0,0,0
	c0,0.1,0,0.2,0,0.3c0.1,0.3,0,0.6-0.1,0.8c-1.1-0.6-2.3-1.1-3.3-1.8c-1.7-1.2-3.4-1.7-5.4-0.3v-1.3c0-6.7,0-13.5,0-20.2
	c0.1-1.3-0.6-2.5-1.8-2.9c-7-2.7-13.9-5.4-20.9-8.2c-1.1-0.5-2.3-0.4-3.4,0.2c-5.1,3.1-10,6.4-14.7,10c-2.2,1.7-3.3,3.6-3,6.3
	C78.9,23.3,78.8,23.5,78.8,23.7z"/>
<path class="st2" d="M23,82.4c3.2,0.2,5.8-0.7,7.4-3.8v3c0,0.2-0.1,0.6,0.3,0.6s0.2-0.4,0.2-0.6v-8.1c0-0.6-0.2-0.7-0.7-0.7
	c-2,0-4,0-5.9,0c-0.2,0-0.6-0.1-0.6,0.3s0.4,0.2,0.6,0.2h5.2c0.3,0,0.8-0.1,0.8,0.5c0.2,1.8-0.2,3.6-1,5.1c-2.4,4.2-9.1,4-11.6-0.3
	c-1.2-2.2-1.6-4.7-1.3-7.1c0.1-2.5,1.3-4.8,3.1-6.4c2.7-2.2,9.2-2.2,10.7,2.7c0.1,0.3,0.2,0.6,0.5,0.4s0.1-0.4,0-0.6
	c-0.3-1.2-1-2.2-2-3c-3.6-2.6-8.7-1.7-11.2,1.9c-0.1,0.2-0.3,0.4-0.4,0.6c-1.6,3.1-1.9,6.8-0.7,10.1C17.2,80.2,19.9,82.3,23,82.4z"
	/>
<path d="M46.6,76.6c0.1,1.2,0.2,2.4,0.1,3.6c0,0.5,0,1.1,0,1.6c0,0.2,0.1,0.3,0.3,0.3c0,0,0,0,0,0h0.1c0.3,0,0.2-0.2,0.2-0.4
	c-0.1-1.7-0.1-3.4-0.2-5.1c0-1.8-1.2-3.4-3-3.8c0.2-0.1,0.2-0.2,0.3-0.2c2.4-0.9,3.3-2.4,3.1-4.8c-0.1-2.2-1.8-3.9-4-4.1
	c-2.3-0.4-4.7-0.1-7-0.2c-0.7,0-0.9,0.2-0.9,0.9c0,5.6,0,11.3,0,16.9v0.6c0,0.2,0.2,0.3,0.3,0.2c0.1,0,0.2-0.1,0.2-0.2c0,0,0,0,0,0
	v-8.1c0-0.3-0.1-0.7,0.5-0.7c2.1,0.1,4.2,0,6.3,0.1S46.3,74.5,46.6,76.6z M36.8,72.5c-0.5,0-0.4-0.3-0.4-0.6v-7.3
	c0-0.3,0-0.6,0.4-0.6c2.3,0.1,4.7-0.3,7,0.2c2,0.3,3.4,2.2,3.2,4.2c0,2-1.4,3.6-3.4,3.8C41.3,72.7,39,72.4,36.8,72.5z"/>
<path class="st2" d="M65.9,78.2c1.6-3.2,1.7-7,0.2-10.2c-1.2-3-4.1-4.8-7.3-4.6c-3.2-0.1-6,1.8-7.2,4.7c-0.7,1.5-1,3.1-1,4.7
	c0,1.3,0.2,2.7,0.6,3.9c0.9,3.2,3.6,5.5,6.9,5.7C61.4,82.8,64.5,81.1,65.9,78.2z M52.4,78c-1.6-3-1.7-6.6-0.3-9.7
	c1.2-3.1,4.3-5,7.6-4.5c3.2,0.3,5.7,2.7,6.5,6.2c0.2,1,0.3,2,0.3,3.1c0.1,2.2-0.6,4.3-1.9,6.1c-2.5,3.2-7,3.7-10.2,1.3
	C53.6,79.8,52.9,78.9,52.4,78z"/>
<path class="st3" d="M97.2,63.7c-2.2-0.4-4.5-0.1-6.7-0.2c-0.8,0-1,0.1-1,1c0,2.8,0,5.6,0,8.4v8.4c0,0.3-0.2,0.9,0.3,0.9
	s0.3-0.6,0.3-0.9c0-2.3,0-4.5,0-6.8c0-0.7,0.2-0.9,0.9-0.9c1.9,0,3.8,0.1,5.7,0c2.6,0,4.7-2.1,4.7-4.6c0,0,0,0,0,0
	C101.7,66.3,99.8,64,97.2,63.7z M99.5,71.8c-0.9,0.8-2.1,1.2-3.3,1.2c-1.7,0-3.5,0-5.2,0c-0.6,0-0.8-0.1-0.8-0.8c0-1.3,0-2.5,0-3.8
	v-3.7c0-0.4,0-0.7,0.6-0.7c2,0,3.9-0.1,5.9,0.1c1.8,0,3.4,1.2,3.9,2.9C101.2,68.7,100.8,70.6,99.5,71.8z"/>
<path class="st3" d="M71.1,75.4c0,2,0.3,4,1.9,5.4c2.4,2.1,5.1,2.1,7.9,1.1s3.4-3.2,3.5-5.8c0.1-1.9,0-3.9,0-5.8V64
	c0-0.2,0.1-0.5-0.3-0.5s-0.2,0.3-0.2,0.5v1.6c0,3.7,0.2,7.3-0.1,11c0,2.8-2.1,5.1-4.8,5.3c-2.7,0.6-5.4-0.7-6.6-3.1
	c-0.5-1.1-0.7-2.2-0.7-3.4V64.2c0-0.2,0.2-0.7-0.3-0.7s-0.3,0.4-0.3,0.7C71.1,68,71.1,71.7,71.1,75.4z"/>
<path class="st2" d="M105.1,64.3c0,2.8,0,5.7,0,8.5v8.5c0,0.7,0.1,0.9,0.9,0.9c3.3,0,6.6,0,9.8,0h0.6c0.1,0,0.2-0.1,0.2-0.2l0,0
	c0-0.2-0.2-0.2-0.3-0.2h-9.8c-0.6,0-0.8-0.1-0.8-0.7c0-2.6,0-5.1,0-7.7c0-0.6,0.2-0.7,0.8-0.7c2.4,0,4.9,0,7.3,0h1.7
	c0.2,0,0.3-0.1,0.3-0.3c0-0.1-0.1-0.2-0.3-0.2h-9c-0.6,0-0.8-0.1-0.8-0.8c0-2.1,0-4.3,0-6.4c0-0.6,0.1-0.8,0.8-0.8c3,0,6.1,0,9.1,0
	c0.3,0,0.7,0.2,0.7-0.3s-0.4-0.3-0.7-0.3h-9.7C105.2,63.5,105,63.7,105.1,64.3z"/>
<path d="M123.7,62.8h7.6l3.6,14.5h0.1l3.6-14.5h7.6v20.6h-4.7V66.9h-0.1l-4.5,16.4h-4l-4.5-16.4h-0.1v16.4h-4.7L123.7,62.8z"/>
<path d="M155.7,62.8l6.2,14.1h0.1V62.8h4.7v20.6h-5.8l-6.2-14.4h-0.1v14.4h-4.7V62.8H155.7z"/>
<path d="M181,69.7c0-3-0.7-4.3-3-4.3c-2.6,0-3.2,2.1-3.2,7.9c0,6.2,1.1,7.3,3.3,7.3c1.9,0,3.2-0.8,3.2-5.2h5.1
	c0,4.4-1.4,8.3-8.1,8.3c-7.7,0-8.6-4.4-8.6-10.7s1-10.7,8.6-10.7c7.3,0,7.9,4.3,7.9,7.3L181,69.7z"/>
<path d="M193.6,62.8h6.3l6.7,20.6h-5.4l-1.2-4.3h-6.7l-1.2,4.3h-5.3L193.6,62.8z M194.3,75.6h5l-2.4-9.2h-0.1L194.3,75.6z"/>
<path d="M208.4,62.8h9c5.2,0,7,3.1,7,6.2c0,4.3-3.2,6.2-8.1,6.2h-2.7v8.2h-5.1L208.4,62.8z M213.5,72.1h2.3c2,0,3.4-1,3.4-3.1
	s-1-3.2-3.6-3.2h-2.1V72.1z"/>
</svg>
