<?xml version="1.0" encoding="utf-8"?>
<!-- Generator: Adobe Illustrator 26.0.2, SVG Export Plug-In . SVG Version: 6.00 Build 0)  -->
<svg version="1.1" id="Calque_1" xmlns="http://www.w3.org/2000/svg" xmlns:xlink="http://www.w3.org/1999/xlink" x="0px" y="0px"
	 viewBox="0 0 240.4 90.2" style="enable-background:new 0 0 240.4 90.2;" xml:space="preserve">
<style type="text/css">
	.st0{fill:none;}
	.st1{fill:#171717;}
	.st2{fill:#363636;}
</style>
<rect x="0.1" y="0.1" class="st0" width="240.1" height="90"/>
<g>
	<path class="st1" d="M33.8,78.5c16.9,0,30.7-13.7,30.7-30.7C64.5,42.8,63,33,53.8,33c-7.7,0-10.2,6.6-12,14.8
		c-2.5,11.1-5.3,14-11.5,14c-5.9,0-11.1-4.9-11.1-14c0-10.9,8.5-19.4,11.7-22.9H13.5c-6.3,5.6-9.6,13.9-9.6,22.9
		C3.9,64.8,16.9,78.5,33.8,78.5z"/>
	<path class="st2" d="M43.8,6.5c-16.9,0-30.7,13.7-30.7,30.7c0,5.1,1.5,14.8,10.7,14.8c7.7,0,10.2-6.6,12-14.8
		c2.5-11.1,5.3-14,11.5-14c5.9,0,11.1,4.9,11.1,14c0,10.9-8.5,19.4-11.7,22.9h17.4c6.4-5.6,9.6-13.8,9.6-22.9
		C73.7,20.1,60.7,6.5,43.8,6.5z"/>
	<path d="M62,60H46.7c3.1-3.5,11.7-12,11.7-22.9c0-1.1-0.1-2.1-0.2-3.1c5.3,2.5,6.4,9.7,6.4,13.9C64.5,52.2,63.6,56.3,62,60z
		 M13.2,37.1c0,4.2,1,11.4,6.4,13.9c-0.2-1-0.2-2-0.2-3.1c0-10.9,8.5-19.4,11.7-22.9H15.7C14,28.7,13.2,32.7,13.2,37.1z"/>
	<path class="st1" d="M93,17.9h7.1l15.1,35.3h-8l-3.2-7.9H89l-3.2,7.9h-7.9L93,17.9z M101.1,38.5l-4.7-11.4l-4.7,11.4H101.1z
		 M118.4,18.1h8.8l3.4-3.3h8.2l-2.8,3.3h8.9V25h-18.8v7.1h16.5V39h-16.5v7.4h19.1v6.8h-26.7L118.4,18.1z M185.4,18.1h7.7v35.1h-7.7
		V18.1z M199.4,35.7v-0.1c0-10,7.9-18.1,18.7-18.1c10.8,0,18.6,8,18.6,18v0.1c0,10-7.9,18.1-18.7,18.1
		C207.2,53.8,199.4,45.8,199.4,35.7z M228.6,35.7v-0.1c0-6-4.4-11-10.6-11s-10.5,4.9-10.5,10.9v0.1c0,6,4.4,11,10.6,11
		S228.6,41.8,228.6,35.7z M166.9,32c-6.3-1.6-7.8-2.4-7.8-4.8v-0.1c0-1.8,1.6-3.2,4.7-3.2c2,0,4.1,0.6,6.2,1.6c2.2,1,4.6,1.5,6-0.5
		c1.3-1.9,0.2-4.2-1.5-5.4c-0.9-0.6-3.2-2-6.1-2.5h-0.1c-1.4-0.3-2.8-0.4-4.4-0.4c-7.4,0-12.7,4.3-12.7,10.9v0.1
		c0,7.2,4.7,9.3,12,11.1c6.1,1.5,7.3,2.6,7.3,4.6v0.1c0,2.1-2,3.4-5.3,3.4c-0.9,0-1.7-0.1-2.5-0.2c-3.7-0.7-6.8-2.8-7.6-3.4
		c-0.5-0.4-2.2-2-3.7-3.3v8.8c2.4,2.7,5.8,4.5,11.1,5c0.9,0.1,1.8,0.2,2.6,0.2c7.8,0,13.3-4.1,13.3-11.2v-0.1
		C178.4,36.6,174.3,33.9,166.9,32z M82.6,59.9L88,71.3l5.4-11.3h4.7v18.6h-3.8V66l-4.9,10.6h-2.7L81.7,66v12.5h-3.8V59.9H82.6
		L82.6,59.9z M111,75c2.5,0,4.2-1.6,4.2-4.3V59.9h4.2v10.8c0,4.9-3.2,7.9-8.3,7.9c-5.1,0-8.4-3.1-8.4-7.9V59.9h4.2v10.8
		C106.8,73.4,108.6,75,111,75L111,75z M137.6,59.9v3.6h-5.7v15h-4.2v-15h-5.6v-3.6C122.1,59.9,137.6,59.9,137.6,59.9z M148.7,75
		c2.5,0,4.2-1.6,4.2-4.3V59.9h4.2v10.8c0,4.9-3.2,7.9-8.3,7.9c-5.1,0-8.4-3.1-8.4-7.9V59.9h4.2v10.8C144.5,73.4,146.2,75,148.7,75z
		 M175.7,59.9v3.4h-10v4.1h8.9v3.4h-8.9V75H176v3.4h-14.4V59.9L175.7,59.9L175.7,59.9z M184.2,59.9v14.9h7.9v3.7H180V59.9H184.2
		L184.2,59.9z M199.7,59.9v14.9h7.9v3.7h-12.2V59.9H199.7z M225,59.9v3.4h-10v4.1h8.9v3.4h-8.9V75h10.2v3.4h-14.4V59.9L225,59.9
		L225,59.9z"/>
</g>
</svg>
