<?xml version="1.0" encoding="utf-8"?>
<!-- Generator: Adobe Illustrator 26.0.2, SVG Export Plug-In . SVG Version: 6.00 Build 0)  -->
<svg version="1.1" id="Calque_1" xmlns="http://www.w3.org/2000/svg" xmlns:xlink="http://www.w3.org/1999/xlink" x="0px" y="0px"
	 viewBox="0 0 240.1 90" style="enable-background:new 0 0 240.1 90;" xml:space="preserve">
<style type="text/css">
	.st0{fill:none;}
	.st1{fill:#9E9E9E;}
	.st2{fill:#030303;}
</style>
<rect class="st0" width="240.1" height="90"/>
<rect x="7" y="30" class="st0" width="226.1" height="30.1"/>
<rect x="7" y="30" class="st0" width="226.1" height="30.1"/>
<path class="st1" d="M16.8,48.9L13.5,48v1l3.3,0.9 M9.2,50l3.3-0.9v-1L9.2,49 M9.2,52.2l3.3-0.9v-1.1l-3.3,0.9 M16.8,51.1l-3.3-0.9
	v1.1l3.3,0.9 M16.8,53.3l-3.3-0.9v1.1l3.3,0.9 M9.2,54.4l3.3-0.9v-1.1l-3.3,0.9"/>
<polygon class="st0" points="7,46.8 7,57.3 18.9,57.3 18.9,46.8 13,45.2 "/>
<polygon class="st0" points="7,46.8 7,57.3 18.9,57.3 18.9,46.8 13,45.2 "/>
<path d="M97,58.5h-2.7V45.9h1.5c2.5,0,4.1,1.5,4.5,6h0.9V38.8h-0.9c0,0-0.2,5.6-4.6,5.5h-1.4V32.5c7.4,0,10.1-0.3,11.4,8.7h0.8V31.2
	H86.4v1.4h3.5v26h-3.8v1.3h20.8V49.3h-1C104.7,57.3,102.7,58.5,97,58.5z"/>
<path d="M86,44.8H74.8v1.3h4v9.4c-0.7,2.4-4.2,3.3-5.2,3.3c-7.3,0-6.7-10.6-6.7-13.5c0-2.7-0.2-13.5,6.7-13.5c5,0,7.5,5,8.6,9.4h0.8
	V30.7l-3.4,2.4c0,0-1.5-2.3-6-2.3c-8.6,0-11.7,8.5-11.7,14.5c0,5.4,2.5,14.7,11.7,14.7c2.4,0,4.6-1.1,6-3.1l3.7,2.9V46.1h3L86,44.8z
	"/>
<path d="M210.3,58.5h-0.3v-26h3.7v-1.4h-11.9v1.4h3.7v26h-2.9l-10.6-28.2h-1.5c0,0-8.9,25.6-8.9,25.7s-0.7,2.2-2.1,2.4
	c-1.3,0-1.2-0.7-1.2-0.9v-5c0-1.3-0.1-4.2-1.4-5.5c-1.1-1-2.5-1.5-4-1.7c0,0,6.5-1.3,6.5-7.5c0-4.3-3-6.5-8.1-6.7h-14.4v1.4h3.7v26
	h-3.7v1.3h11.7v-1.4h-3.7V46h5c8.5,0.7-1.4,13.9,9.6,13.8h7v-1.3c-0.4,0-3,0.1-3.1-1.7c-0.1-1.3,1.7-6,1.7-6h9.6l3,7.6h-3.3v1.3h26
	V49.2h-1.1C218,57.3,216,58.5,210.3,58.5z M169.3,44.6h-4.6V32.5h6c3.5,0.6,3.7,4.5,3.7,5.9C174.3,41.5,173,44.6,169.3,44.6
	L169.3,44.6z M185.5,49.4l4.2-12.4l4.4,12.4H185.5z"/>
<path d="M145.1,58.5h-2.7V45.9h1.5c2.5,0,4,1.5,4.5,6h1V38.8h-0.9c0,0-0.2,5.6-4.6,5.5h-1.4V32.5l0,0c7.4,0,10.1-0.3,11.4,8.7h0.8
	V31.2h-29.4v1.4h0.8c1,0,3.5,0.1,3.7,2.2v16.6L116,31.3h-7.5v1.3h1.2c1.4,0,3.5,0.1,3.7,2.2v21.2c0,2.1-3.1,2.9-4.4,2.9v1H119v-1
	c-1.3,0-4.4-0.8-4.4-2.9V37.3c5.5,7.9,15.8,22.7,15.9,22.7h0.6V34.7c0.1-2.2,2.7-2.2,3.7-2.2h3.4v26h-3.9v1.3h20.8V49.2h-1
	C153,57.3,150.9,58.5,145.1,58.5z"/>
<polygon points="233.2,32.5 233.2,31.1 221.4,31.1 221.4,32.5 225.1,32.5 225.1,58.5 221.4,58.5 221.4,59.9 233.2,59.9 233.2,58.5 
	229.5,58.5 229.5,32.5 "/>
<path d="M48.2,57.2l1.1-0.4c1.5-0.7,1.8-1,1.7-2v-4c1.1,2.9,2.2,5,4.4,5c0.3,0,0.7,0,1-0.1l0.9-0.2l-0.6-0.7
	c-0.3-0.3-0.6-0.7-0.8-1.1l-0.3-0.6c-0.7-0.9-1.8-1.1-2.8-0.7c-0.6-1.1-1-2.3-1.4-3.5l-0.1-0.2c-0.1-0.2-0.2-0.4-0.3-0.7
	c-0.3-0.8-0.7-1.5-1.1-2.2c-0.3-0.7-0.8-1.2-1.2-1.8c-1.2-1.3-2.8-2.2-4.5-2.5c-1.1-0.2-2.2-0.2-3.3-0.3H40l-2.8-0.2l-2-0.2
	c0-0.2,0-0.3,0-0.6c0-0.2,0-0.4-0.1-0.6h7.4c1.8,0.1,3.4-0.9,4.1-2.5c1.8,0.1,3.4-1,4.1-2.5H51c1.9,0.1,3.5-1,4.2-2.7l0.3-0.8H30.3
	c-1.7,0-3.1,1.1-3.5,2.8l0,0c-0.4-1.2-1.2-2.1-2.2-2.8c-1.2-0.8-2.8-1.1-4.3-0.8c-0.4,0.1-0.8,0.3-1.1,0.6s-0.7,0.6-1,0.9
	c-0.3,0.4-0.7,0.9-1,1.4c-0.1,0.1-0.2,0.2-0.3,0.3L16.5,34c-0.2,0.7-0.7,1.3-1.1,1.9c-0.4,0.4-0.4,1.1-0.1,1.5l0.1,0.1
	c-0.1,0.2-0.1,0.3-0.1,0.6c0,0.7,0.6,1.2,1.2,1.2l0,0l0,0c0.6,0,1-0.2,1.3-0.6c0.2-0.2,0.6-0.3,0.8-0.4c0.2,0,0.3,0.2,0.4,0.3
	c0,0.6-0.7,0.9-1.2,0.9l-1,0.1c-0.8,0.1-1.1,0.4-1.1,0.8c0,0.2,0.1,0.6,0.3,0.7l0.1,0.1l0.2,0.2l-1.1,1.8c-0.7-0.7-1.5-1.1-2.4-1.2
	c-0.4,0-1,0.1-1.3,0.4c-0.1,0.1-0.2,0.2-0.2,0.3c-0.8,0-1.4,0.4-1.9,1C9,44.6,9.2,45.3,9.6,46l-2.8,0.7v13.2h50.4v-2.7H48.2z
	 M54.6,53.6l0.2,0.4c0.1,0.2,0.2,0.3,0.3,0.6c-0.8-0.1-1.5-0.6-2-1.3C53.7,53.2,54.3,53.3,54.6,53.6L54.6,53.6z M43.8,42.6
	L43.8,42.6c1.5,0.2,3,1,4,2.2c0.2,0.2,0.4,0.6,0.7,0.8c-2.8-0.3-3.7-0.8-5.2-3H43.8z M42.6,38.6h-5.1c0.4-0.4,0.9-0.9,1.1-1.4h7
	C44.9,38.1,43.8,38.7,42.6,38.6L42.6,38.6z M46.7,36.1h-5.1c0.4-0.4,0.9-1,1.1-1.5h7C49,35.6,47.9,36.1,46.7,36.1L46.7,36.1z
	 M47,32.2h7c-0.7,0.9-1.8,1.4-2.9,1.3H46C46.3,33.2,46.7,32.7,47,32.2L47,32.2z M19,32.5L19,32.5c0.2-0.3,0.4-0.6,0.8-0.8
	c0.2-0.2,0.6-0.3,0.9-0.4c0.6-0.1,1.1-0.1,1.7,0l-1.9,1.1h-0.7C19.4,32.5,19.2,32.5,19,32.5L19,32.5z M16.9,40.5h0.9
	c1.1,0,2.2-0.4,2.3-1.7c0-0.8-0.6-1.4-1.3-1.5c-0.6,0.1-1,0.3-1.4,0.7c-0.2,0.2-0.6,0.3-0.8,0.4c-0.1,0-0.2-0.1-0.2-0.2l0.6-0.8
	L16.3,37c-0.1-0.1-0.2-0.2-0.3-0.3c0-0.1,0-0.1,0.1-0.1c0.2-0.3,0.4-0.6,0.7-0.9c0.1-0.2,0.2-0.3,0.4-0.3c0.2,0,0.4,0.2,0.4,0.4l0,0
	c0,0.1,0.2,0.3,0.4,0.3s0.3-0.1,0.4-0.3c0.1-0.2,0.6-0.4,0.2-0.7c-0.3-0.2-1.5,0.2-1.2-0.9l0.1-0.1c0.6-0.4,1.2-0.7,2-0.7
	c0.2,0,0.4,0,0.8,0h0.2l2.7-1.8v0.1c0.1,0.9-0.3,1.8-1.1,2.2l-0.3,0.2l0.2,1.1c-0.7,0.1-1.1,0.8-1.1,1.3c0,0.2,0,0.6,0.1,0.8
	c0.1,0.4,0.1,0.8,0.2,1.2c0,1.2-1.7,2-3.1,2c-0.4,0-0.8-0.1-1.2-0.2C16.9,40.7,16.9,40.7,16.9,40.5L16.9,40.5
	C16.8,40.6,16.9,40.6,16.9,40.5L16.9,40.5z M8.7,57.3L8.7,57.3l4.3-1.1l4.3,1.1H8.7z M17.9,56.3L13,55l-4.9,1.3v-8.7l4.9-1.3
	l4.9,1.3C17.9,47.5,17.9,56.3,17.9,56.3z M12.9,45.2l-2.1,0.6c-0.3-0.3-0.6-0.9-0.4-1.4l0,0c0.3-0.3,0.8-0.6,1.2-0.4L12,44l0.1-0.4
	c0-0.1,0.1-0.2,0.1-0.2c0.1-0.1,0.3-0.2,0.6-0.2c0.8,0.1,1.5,0.6,2,1.1c0.2,0.2,0.4,0.6,0.7,0.9l0.1,0.2l0.1,0.2
	c0.1,0.2,0.2,0.3,0.3,0.6l0.7-0.9l0,0c-0.1-0.1-0.1-0.2-0.2-0.3v-0.1l-0.1-0.1l-0.2-0.4l1.3-2.2c0.2,0,0.6,0.1,0.8,0.1
	c1.9,0,3.9-1.1,3.9-3c0-0.4-0.1-0.9-0.2-1.3c0-0.2-0.1-0.4-0.1-0.7c0-0.2,0.2-0.4,0.7-0.4h0.7L22.9,35c0.9-0.7,1.3-1.7,1.3-2.7
	c1,0.8,1.7,2,1.7,3.3c0,0.6,0,1-0.1,1.4l0.1,0.1c-0.2,0.8-0.4,1.5-0.8,2.3L25,39.9l0.3,0.2c0.7,0.4,1.1,0.7,1.1,1.7
	c-0.1,1-0.9,1.9-1.9,2L23.3,44l1.1,0.7c0.3,0.2,0.6,0.6,0.6,1c0,0.7-0.4,1.2-1.1,1.3h-0.4l-0.1,0.3c-0.3,1.2-0.8,1.9-2.2,2
	c0.1-0.4,0.1-0.9,0.1-1.3v-0.6l-0.1-1.2l-0.9,0.9c-0.3,0.3-0.9,0.6-1.3,0.7v-1.1L12.9,45.2z M20.1,54.6c-0.4,0.8-0.6,1.8-0.1,2.5h-1
	v-8.4c0.4-0.1,0.8-0.2,1.2-0.3c0,0.3-0.1,0.7-0.1,1v0.3L20,50.3h0.7c0.8,0,1.4-0.1,2.1-0.4v3.5c0,0.1-0.1,0.1-0.1,0.2h-0.1
	c-0.8-0.1-1.5,0.3-2.1,0.9L20.1,54.6z M31.1,57.2h-6.4c0.6,0,1.1-0.2,1.4-0.6c0.3-0.4,0.4-0.9,0.4-1.4c0.1-0.1,0.2-0.2,0.3-0.3
	l0.6-0.2l-0.3-0.4c-0.6-0.9-0.3-2.7-0.1-3.7l0,0c1.8,0,3.4-0.3,5.1-0.9l1.2-0.3c0,0,0.4-0.1,1-0.3l2.1,3.4c0.2,0.3,0.2,0.6-0.1,0.9
	l-1,1.1l-1.7-0.3c-0.8-0.1-1.5,0.2-2.1,0.8h0.1C30.9,55.5,30.7,56.4,31.1,57.2z M32.1,57.2L32.1,57.2L32.1,57.2
	c-0.2-0.7-0.1-1.2,0.2-1.8c0.3-0.3,0.8-0.4,1.2-0.4l2,0.3h0.3l1.3-1.5c0.7-0.6,0.7-1.5,0.2-2.2l-1.9-3c0.3,0,0.6-0.1,0.9-0.1
	c0.7,0,1.3,0.2,2,0.6c0.1,0.3,0.3,0.7,0.6,1.1c0.3,0.8,0.9,1.8,1,2.2c0.1,0.3,0,0.8-0.3,1L36,57.2H32.1
	C32.1,57.3,32.1,57.3,32.1,57.2z M44.2,57.2h-6.9l2.9-3.1c0.6-0.6,0.8-1.3,0.6-2c-0.2-0.7-0.6-1.3-0.9-2c2.1,0.8,4.2,1.2,6.4,1.3
	c0.4,0,0.6,0.2,0.7,0.6l0.2,1.5l-1.9,0.3C44.8,54,44.2,54.4,44,55C43.8,55.7,43.9,56.5,44.2,57.2z M45,55.5L45,55.5
	c0.1-0.2,0.3-0.4,0.7-0.4l2.8-0.6L48.2,52c-0.1-0.8-0.8-1.4-1.5-1.4c-5-0.4-6.1-1.1-7.3-1.9l-0.1-0.2c-0.8-0.6-1.8-0.8-2.7-0.9
	c-1.1,0.1-2.2,0.2-3.3,0.6l-1.2,0.3c-1.7,0.7-3.4,0.9-5.2,0.9h-0.4l-0.1,0.3c-0.4,1.4-0.4,3-0.1,4.4c-0.3,0.2-0.6,0.6-0.6,1
	c0,0.6-0.1,0.7-0.1,0.8c-0.6,0.2-1.2,0.3-1.9,0.3h-0.3l-0.1,0.2c-0.6,0.6-1.3,0.8-2,0.6c-0.3-0.6-0.3-1.2,0-1.9
	c0.3-0.3,0.8-0.6,1.2-0.4h0.1c0.7,0,1.2-0.6,1.2-1.2l0,0V49c0.2-0.3,0.3-0.8,0.6-1.1c1.1-0.2,1.9-1.1,1.9-2.2c0-0.4-0.1-0.9-0.3-1.2
	c1.1-0.4,1.9-1.5,1.9-2.8c0-1-0.4-1.9-1.3-2.3c0.2-0.8,0.4-1.4,0.7-2.2L28,34c0.3-1.2,1.3-2,2.7-2h15.3c-0.7,0.9-1.8,1.4-2.9,1.3
	h-9.3l-0.4,1h8.2c-0.7,1-1.8,1.7-3,1.5h-6.1l-0.4,1h5.4c-0.7,1-1.8,1.5-2.9,1.4h-3.3l-0.4,1h3.4c0.1,0.2,0.1,0.4,0.1,0.7
	c0,0.7-0.6,1.2-1.2,1.2l0,0l0,0c-0.2,0-0.6-0.1-0.8-0.2l-0.4-0.1l-0.8,0.8l0.4,0.2c0.4,0.2,1,0.4,1.7,0.4c0.7,0,1.2-0.2,1.7-0.7
	l2.4,0.2l2.7,0.2h0.8c0.4,0,0.9,0,1.3,0.1c2.1,3.4,3.2,3.9,7.2,4.3c0.3,0.6,0.6,1.1,0.8,1.7v7.1c-0.3,0.2-0.7,0.4-1,0.6l-3.7,1.3
	C44.9,56.7,44.8,56.1,45,55.5L45,55.5z"/>
<path class="st2" d="M32.1,57.2L32.1,57.2L32.1,57.2L32.1,57.2z"/>
<polygon points="16.8,48.9 13.5,48.1 13.5,49.1 16.8,50 "/>
<polygon points="9.2,50 12.5,49.1 12.5,48.1 9.2,49 "/>
<polygon points="9.2,52.2 12.5,51.3 12.5,50.2 9.2,51.1 "/>
<polygon points="16.8,51.1 13.5,50.3 13.5,51.3 16.8,52.2 "/>
<polygon points="16.8,53.3 13.5,52.4 13.5,53.5 16.8,54.4 "/>
<polygon points="9.2,54.4 12.5,53.5 12.5,52.4 9.2,53.3 "/>
</svg>
