<?xml version="1.0" encoding="utf-8"?>
<!-- Generator: Adobe Illustrator 26.0.2, SVG Export Plug-In . SVG Version: 6.00 Build 0)  -->
<svg version="1.1" id="Calque_1" xmlns="http://www.w3.org/2000/svg" xmlns:xlink="http://www.w3.org/1999/xlink" x="0px" y="0px"
	 viewBox="0 0 240.1 90" style="enable-background:new 0 0 240.1 90;" xml:space="preserve">
<style type="text/css">
	.st0{fill:none;}
	.st1{fill:url(#path25_00000052803397799826650830000013652138571683220614_);}
	.st2{fill:#757575;}
</style>
<rect class="st0" width="240.1" height="90"/>
<image style="display:none;overflow:visible;" width="613" height="128" xlink:href="G:\Mon Drive\EDITIQUES_CONTRATS\_LOGOS-CONTRATS\JPG\PREPARVIE.jpg"  transform="matrix(0.48 0 0 0.48 -133.84 -247.72)">
</image>
<g>
	
		<radialGradient id="path25_00000000180467947920993410000002692106661359621543_" cx="602.3177" cy="649.4565" r="168.7233" gradientTransform="matrix(0.5061 0 0 0.3468 -183.7931 -220.0286)" gradientUnits="userSpaceOnUse">
		<stop  offset="0" style="stop-color:#FFFFFF"/>
		<stop  offset="8.000000e-02" style="stop-color:#FAFAFA"/>
		<stop  offset="0.22" style="stop-color:#EDEDED"/>
		<stop  offset="0.4" style="stop-color:#D9D9D9"/>
		<stop  offset="0.6" style="stop-color:#BABABA"/>
		<stop  offset="0.83" style="stop-color:#949494"/>
		<stop  offset="1" style="stop-color:#757575"/>
	</radialGradient>
	<path id="path25" style="fill:url(#path25_00000000180467947920993410000002692106661359621543_);" d="M120.1,0.8
		C73.7,0.8,31.5,3.4,0,7.8v3.1c35.3-2.5,76.3-4.4,120.1-4.4s84.8,2,120.1,4.4V7.8C208.6,3.4,166.4,0.8,120.1,0.8z"/>
	<path id="path27" d="M27.6,87.2c-0.2,0.3-0.3,0.5-0.7,0.5c-0.5,0-0.8-0.3-0.8-0.8c0-0.2,0-0.2,0-0.3L29.9,75c0.2-0.5,0.5-1,1-1
		c0.5,0,0.8,0.5,1,1l3.6,11.6c0,0.2,0,0.2,0,0.3c0,0.5-0.3,0.8-0.8,0.8c-0.3,0-0.7-0.2-0.8-0.5L33,84.6h-4.7L27.6,87.2z M28.9,83.1
		h3.8l-2-6.4L28.9,83.1z"/>
	<path id="path29" d="M41.3,77.9c1,0,2.5,0.3,2.5,1c0,0.3-0.3,0.7-0.7,0.7l0,0c-0.2,0-0.2,0-0.3-0.2c-0.5-0.2-1-0.3-1.5-0.3
		c-1.1,0-1.6,0.5-1.6,1.3c0,0.7,0.2,0.8,0.8,1.1c1.3,0.7,3.4,0.8,3.4,3.3c0,1.6-1.1,2.8-3.1,2.8c-1,0-2.8-0.2-2.8-1.1
		c0-0.3,0.3-0.7,0.7-0.7l0,0h0.2c0.7,0.3,1.3,0.5,2,0.5c1,0,1.8-0.5,1.8-1.3c0-0.5-0.2-1-0.7-1.1c-1.1-0.7-3.8-0.8-3.8-3.3
		C38.4,79,39.4,77.9,41.3,77.9L41.3,77.9z"/>
	<path id="path31" d="M50,77.9c1,0,2.4,0.3,2.4,1c0,0.3-0.3,0.7-0.7,0.7c-0.2,0-0.2,0-0.3-0.2C51,79.2,50.5,79,50,79
		c-1.1,0-1.6,0.5-1.6,1.3c0,0.7,0.2,0.8,0.8,1.1c1.3,0.7,3.4,0.8,3.4,3.3c0,1.6-1.1,2.8-3.1,2.8c-1,0-2.8-0.2-2.8-1.1
		c0-0.3,0.3-0.7,0.7-0.7l0,0h0.2c0.7,0.3,1.3,0.5,2,0.5c1,0,1.8-0.5,1.8-1.3c0-0.5-0.2-1-0.7-1.1c-1.1-0.7-3.8-0.8-3.8-3.3
		C46.9,79,48,77.9,50,77.9L50,77.9z"/>
	<path id="path33" d="M61.4,78.7c0.2-0.3,0.5-0.7,1-0.5c0.3,0,0.5,0.3,0.5,0.5v6.5c0,1,0.2,1,0.3,1.3c0,0.2,0.2,0.2,0.2,0.3
		c0,0.3-0.3,0.7-0.7,0.7l0,0c-0.3,0-0.7-0.2-0.8-0.5c-0.8,0.5-1.8,0.7-2.6,0.7c-2,0-2.9-1.5-2.9-3.6v-5.6c0.2-0.3,0.5-0.7,1-0.5
		c0.3,0,0.5,0.3,0.5,0.5v5.6c0,1.5,0.7,2.3,1.8,2.3c0.8,0,1.5-0.2,2.1-0.7c0-0.2,0-0.3,0-0.5L61.4,78.7z"/>
	<path id="path35" d="M68.4,87c-0.2,0.3-0.5,0.7-1,0.5c-0.3,0-0.5-0.3-0.5-0.5v-6.4c0-0.5,0-1-0.3-1.3c-0.2-0.2-0.2-0.2-0.2-0.3
		c0-0.3,0.3-0.7,0.7-0.7l0,0c0.3,0,0.7,0.2,0.8,0.5c0.8-0.5,1.6-0.8,2.6-0.8c0.8,0,1,0.3,1,0.7s-0.3,0.7-0.7,0.8h-0.2
		c-0.8-0.2-1.8,0.2-2.5,0.7c0,0.2,0,0.3,0,0.5L68.4,87z"/>
	<path id="path37" d="M79.4,86.1c0.2,0,0.2,0,0.3,0c0.3,0,0.7,0.3,0.7,0.7c0,1-2,1.1-3.1,1.1c-2.1,0-3.3-1.3-3.3-3.1v-3.6
		c0-1.8,1.1-3.1,3.4-3.1c2.1,0,3.1,1.1,3.1,3.1c0,1.8-1,2.8-3.3,2.8c-0.7,0-1.3,0-2-0.2v1.1c0,1,0.7,1.8,2.1,1.8
		C78.1,86.6,78.7,86.4,79.4,86.1z M77.3,79.4c-1.1,0-2,0.7-2,1.6v1.5c0.7,0,1.3,0.2,2,0.2c1.5,0,1.6-0.8,1.6-1.5
		c0.2-0.8-0.5-1.6-1.3-1.8C77.6,79.4,77.4,79.4,77.3,79.4L77.3,79.4z"/>
	<path id="path39" d="M88.7,78.9c0.2-0.3,0.5-0.7,1-0.5c0.3,0,0.5,0.3,0.5,0.5v6.5c0,1,0.2,1,0.3,1.3c0,0.2,0.2,0.2,0.2,0.3
		c0,0.3-0.3,0.7-0.7,0.7l0,0c-0.3,0-0.7-0.2-0.8-0.5c-0.8,0.5-1.8,0.7-2.6,0.7c-2,0-2.9-1.5-2.9-3.6v-5.6c0.2-0.3,0.5-0.7,1-0.5
		c0.3,0,0.5,0.3,0.5,0.5v5.6c0,1.5,0.7,2.3,1.8,2.3c0.8,0,1.5-0.2,2.1-0.7c0-0.2,0-0.3,0-0.5L88.7,78.9z"/>
	<path id="path41" d="M95.7,87.2c-0.2,0.3-0.5,0.7-1,0.5c-0.3,0-0.5-0.3-0.5-0.5v-6.4c0-0.5,0-1-0.3-1.3c-0.2-0.2-0.2-0.2-0.2-0.3
		c0-0.3,0.3-0.7,0.7-0.7l0,0c0.3,0,0.7,0.2,0.8,0.5c0.8-0.5,1.6-0.8,2.6-0.8c0.8,0,1,0.3,1,0.7s-0.3,0.7-0.7,0.8H98
		c-0.8-0.2-1.6,0.2-2.4,0.7c0,0.2,0,0.3,0,0.5L95.7,87.2z"/>
	<path id="path43" d="M111.2,82.3c-1.8-1-4.9-1-4.9-4.2c0-2.3,1.5-3.6,3.8-3.6c1,0,3.3,0.2,3.3,1.3c0,0.3-0.3,0.7-0.7,0.7l0,0
		c-0.7,0-1.1-0.5-2.3-0.5c-1.3,0-2.3,0.5-2.3,2.1c0,0.8,0.3,1.5,1.1,2c1.8,1,4.9,1,4.9,4.2c0,2.5-1.8,3.9-4.1,3.9
		c-1.1,0-3.4-0.3-3.4-1.5c0-0.3,0.3-0.7,0.7-0.8c0.5,0,1.3,0.7,2.8,0.7c1.6,0,2.4-0.8,2.4-2.3C112.5,83.4,112,82.6,111.2,82.3z"/>
	<path id="path45" d="M116.8,84.6v-3.1c0-2,1.3-3.3,3.6-3.3c2.3,0,3.6,1.5,3.6,3.4v3.1c0,2-1.3,3.4-3.6,3.3
		C118.1,88,116.8,86.6,116.8,84.6z M122.3,84.6v-3.1c0-1.1-1-2.1-2.1-2.1c-1.1,0-2.1,1-2.1,2.1v3.1c0,1.1,1,2.1,2.1,2.1
		C121.5,86.7,122.3,85.7,122.3,84.6L122.3,84.6z"/>
	<path id="path47" d="M127.2,75c0-0.5,0.3-0.8,0.8-0.8c0.5,0,0.8,0.3,0.8,0.8v11.1c0,0.3,0,0.7,0.3,0.8c0,0.2,0.2,0.2,0.2,0.3
		c0,0.3-0.3,0.7-0.7,0.7l0,0c-0.5,0-1.1-0.2-1.1-2L127.2,75z"/>
	<path id="path49" d="M138,78.9c0.2-0.3,0.5-0.7,1-0.5c0.3,0,0.5,0.3,0.5,0.5v6.5c0,1,0.2,1,0.3,1.3c0,0.2,0.2,0.2,0.2,0.3
		c0,0.3-0.3,0.7-0.7,0.7c-0.3,0-0.7-0.2-0.8-0.5c-0.8,0.5-1.8,0.7-2.6,0.7c-2,0-2.9-1.5-2.9-3.6v-5.6c0.2-0.3,0.5-0.7,1-0.5
		c0.3,0,0.5,0.3,0.5,0.5v5.7c0,1.5,0.7,2.3,1.8,2.3c0.8,0,1.5-0.2,2.1-0.7c0-0.2,0-0.3,0-0.5L138,78.9z"/>
	<path id="path51" d="M143.4,76.1c0.2-0.3,0.5-0.7,1-0.5c0.2,0,0.5,0.3,0.5,0.5v2.6h2c0.3,0,0.7,0.3,0.7,0.7s-0.3,0.7-0.7,0.7h-2
		v3.8c0,2,0.2,2.6,1.5,2.6h0.3c0.5,0,1,0,1,0.7s-0.5,0.7-1.1,0.7c-2.6,0-3.3-1.3-3.3-3.9L143.4,76.1z"/>
	<path id="path53" d="M151.4,76.3c-0.5,0-1-0.3-1-1l0,0c0-0.5,0.3-1,1-1c0.5,0,1,0.3,1,1C152.4,75.8,151.9,76.3,151.4,76.3
		L151.4,76.3z M151.4,88c-0.3,0-0.8-0.3-0.8-0.7c0,0,0,0,0-0.2v-8.3c-0.2-0.3,0.2-0.8,0.5-1c0.3-0.2,0.8,0.2,1,0.5
		c0,0.2,0,0.3,0,0.5v8.3C152.2,87.7,151.9,88,151.4,88L151.4,88L151.4,88z"/>
	<path id="path55" d="M155.8,84.8v-3.1c0-2,1.3-3.3,3.6-3.3c2.3,0,3.6,1.5,3.6,3.4v3.1c0,2-1.3,3.3-3.6,3.3
		C157,88,155.8,86.6,155.8,84.8z M161.4,84.8v-3.1c0-1.1-1-2.1-2.1-2.1c-1.1,0-2.1,1-2.1,2.1l0,0v3.1c0,1.1,1,2.1,2.1,2.1
		C160.4,86.7,161.4,85.9,161.4,84.8z"/>
	<path id="path57" d="M167.7,87.4c-0.2,0.3-0.5,0.7-1,0.5c-0.3,0-0.5-0.3-0.5-0.5V81c0-1-0.2-1-0.3-1.3c0-0.2-0.2-0.2-0.2-0.3
		c0-0.3,0.3-0.7,0.7-0.7l0,0c0.3,0,0.7,0.3,0.8,0.5c0.8-0.5,1.8-0.8,2.6-0.8c2,0,2.9,1.5,2.9,3.6v5.6c-0.2,0.3-0.5,0.7-1,0.5
		c-0.2,0-0.5-0.3-0.5-0.5V82c0-1.5-0.7-2.3-1.8-2.3c-0.8,0-1.5,0.3-2.1,0.8c0,0.2,0,0.3,0,0.5L167.7,87.4z"/>
	<path id="path59" d="M179.7,78.2c1,0,2.4,0.3,2.4,1c0,0.3-0.3,0.7-0.7,0.7c-0.2,0-0.2,0-0.3-0.2c-0.5-0.2-1-0.3-1.5-0.3
		c-1.1,0-1.6,0.5-1.6,1.3c0,0.7,0.2,0.8,0.8,1.1c1.3,0.7,3.4,0.8,3.4,3.3c0,1.6-1.1,2.8-3.1,2.8c-1,0-2.8-0.2-2.8-1.1
		c0-0.3,0.3-0.7,0.7-0.7l0,0h0.2c0.7,0.3,1.3,0.5,2,0.5c1,0,1.8-0.5,1.8-1.3c0-0.5-0.2-1-0.7-1.1c-1.1-0.7-3.8-0.8-3.8-3.3
		C176.6,79.4,177.7,78.2,179.7,78.2L179.7,78.2z"/>
	<path id="path61" d="M194.7,85.6l3.3-10.5c0.2-0.3,0.5-0.5,0.8-0.5c0.5,0,0.8,0.3,0.8,0.8l0,0c0,0.2,0,0.2,0,0.3l-3.8,11.6
		c-0.2,0.7-0.5,1-1,1c-0.5,0-0.8-0.5-1-1l-3.6-11.6c0-0.2,0-0.2,0-0.3c0-0.5,0.3-0.8,0.8-0.8l0,0c0.3,0,0.7,0.3,0.7,0.5L194.7,85.6z
		"/>
	<path id="path63" d="M203.2,76.3c-0.5,0-1-0.5-0.8-1l0,0c0-0.5,0.3-1,1-1s1,0.3,1,1l0,0C204,75.9,203.7,76.3,203.2,76.3L203.2,76.3
		z M203.2,88.2c-0.5,0-0.8-0.3-0.8-0.8V79c-0.2-0.3,0.2-0.8,0.5-1c0.3-0.2,0.8,0.2,1,0.5c0,0.2,0,0.3,0,0.5v8.3
		C203.8,87.9,203.5,88.2,203.2,88.2C203.2,88.2,203,88.2,203.2,88.2L203.2,88.2z"/>
	<path id="path65" d="M212.8,86.4c0.2,0,0.2,0,0.3,0c0.3,0,0.7,0.3,0.7,0.7c0,1-2,1.1-3.1,1.1c-2.1,0-3.3-1.3-3.3-3.1v-3.6
		c0-1.8,1.1-3.1,3.4-3.1c2.1,0,3.1,1.1,3.1,3.1c0,1.8-1,2.8-3.1,2.8c-0.7,0-1.3,0-2-0.2v1.1c0,1,0.7,1.8,2.1,1.8
		C211.7,86.9,212.3,86.7,212.8,86.4z M210.9,79.7c-1.1,0-2,0.7-2,1.6v1.5c0.7,0.2,1.3,0.2,2,0.2c1.5,0,1.6-0.8,1.6-1.5
		c0.2-0.8-0.5-1.6-1.3-1.8C211.2,79.7,211,79.7,210.9,79.7L210.9,79.7z"/>
	<path id="path67" d="M121.8,64.2c-2.3-4.7-4.4-9.8-6.4-15c-2.1-5.2-3.9-10.5-5.7-15.7h6.2c0.7,2.1,1.5,4.2,2.1,6.4
		c0.8,2.1,1.5,4.2,2.3,6.4s1.5,4.1,2.3,6c0.8,2,1.5,3.8,2.1,5.4c0.7-1.6,1.5-3.4,2.1-5.4c0.8-2,1.5-3.9,2.3-6
		c0.8-2.1,1.5-4.2,2.3-6.4c0.8-2.1,1.5-4.2,2.1-6.4h6c-1.8,5.2-3.8,10.5-5.7,15.7c-2.1,5.2-4.2,10.3-6.4,15
		C127.6,64.2,121.8,64.2,121.8,64.2z"/>
	<path id="path69" d="M170.2,48.8c0,2.5-0.3,4.7-1.1,7c-0.7,2-1.8,3.6-3.3,5.1c-1.3,1.3-2.9,2.5-4.7,3.1c-1.8,0.7-3.8,1-5.7,1
		s-3.9-0.3-5.7-1c-1.8-0.7-3.4-1.6-4.7-3.1c-1.5-1.5-2.4-3.1-3.3-5.1c-1.6-4.6-1.6-9.5,0-13.9c0.7-2,1.8-3.6,3.3-5.1
		c1.3-1.3,2.9-2.5,4.7-3.1c3.8-1.3,7.8-1.3,11.4,0c1.8,0.7,3.4,1.6,4.7,3.1c1.5,1.5,2.4,3.1,3.3,5.1
		C169.9,44.1,170.4,46.5,170.2,48.8z M146.2,48.8c0,1.6,0.2,3.1,0.7,4.6c0.3,1.3,1,2.5,1.8,3.4c0.8,1,1.8,1.8,2.9,2.3
		c1.1,0.5,2.4,0.8,3.8,0.8s2.6-0.2,3.8-0.8c1.1-0.5,2.1-1.3,2.9-2.3c0.8-1,1.5-2.3,1.8-3.4c0.8-2.9,0.8-6.2,0-9.1
		c-0.3-1.3-1-2.5-1.8-3.4s-1.8-1.8-2.9-2.3c-1.1-0.5-2.4-0.8-3.8-0.8s-2.6,0.2-3.8,0.8c-1.1,0.5-2.1,1.3-2.9,2.3s-1.5,2.3-1.8,3.4
		C146.3,45.7,146.2,47.3,146.2,48.8L146.2,48.8z"/>
	<path id="path71" d="M198.5,33.1c4.4,0,7.8,0.8,10.1,2.4c2.3,1.6,3.6,4.1,3.6,7.5c0,4.2-2.1,7-6.2,8.5c0.5,0.7,1.1,1.5,2,2.4
		c0.7,1,1.5,2,2.1,3.1c0.8,1.1,1.5,2.3,2.1,3.4c0.7,1.1,1.3,2.4,1.8,3.6h-6.2c-0.5-1-1.1-2.1-1.8-3.3c-0.7-1.1-1.3-2.1-2-3.1
		c-0.7-1-1.3-2-2-2.9c-0.7-1-1.3-1.6-1.8-2.5c-0.5,0-0.8,0-1.1,0h-3.6V64H190V34c1.5-0.3,2.9-0.5,4.4-0.7
		C195.8,33.3,197.3,33.1,198.5,33.1z M198.9,38c-1.1,0-2.3,0-3.3,0.2v10h2.4c1.1,0,2.5,0,3.6-0.2c1-0.2,1.8-0.3,2.6-0.8
		c0.7-0.3,1.1-0.8,1.6-1.5c0.3-0.8,0.5-1.6,0.5-2.5s-0.2-1.6-0.5-2.5c-0.3-0.7-0.8-1.1-1.5-1.5c-0.8-0.5-1.5-0.7-2.4-0.8
		C200.9,38.2,199.9,38,198.9,38L198.9,38z"/>
	<path id="path73" d="M176.4,33.5h5.6v30.7h-5.6V33.5z"/>
	<rect id="rect75" x="176.4" y="24.8" width="5.6" height="4.1"/>
	<path id="path77" class="st2" d="M34.8,33.1c4.4,0,7.8,0.8,10.3,2.4c2.5,1.6,3.6,4.2,3.6,7.7c0,1.6-0.3,3.3-1,4.6
		c-0.7,1.3-1.6,2.3-2.8,3.1c-1.3,0.8-2.8,1.5-4.4,1.8c-2,0.3-3.9,0.7-6,0.7h-2.8v10.8h-5.6V34c1.5-0.3,2.8-0.5,4.2-0.7
		C32,33.3,33.3,33.1,34.8,33.1z M35.1,38c-1.5,0-2.6,0-3.4,0.2v10.5h2.6c2.6,0,4.7-0.3,6.2-1.1c1.5-0.8,2.1-2.1,2.1-4.2
		c0-0.8-0.2-1.8-0.7-2.5c-0.3-0.7-1-1.3-1.6-1.6c-0.8-0.5-1.6-0.7-2.5-0.8C37.1,38,36.1,38,35.1,38L35.1,38z"/>
	<path id="path79" class="st2" d="M62.1,33.1c4.4,0,7.8,0.8,10.1,2.4c2.3,1.6,3.6,4.1,3.6,7.5c0,4.2-2.1,7-6.2,8.5
		c0.5,0.7,1.1,1.5,2,2.4c0.7,1,1.5,2,2.1,3.1c0.8,1.1,1.5,2.3,2.1,3.4c0.7,1.1,1.3,2.4,1.8,3.6h-6.2c-0.5-1-1.1-2.1-1.8-3.3
		c-0.7-1.1-1.3-2.1-2-3.1c-0.7-1-1.3-2-2-2.9c-0.7-1-1.3-1.6-1.8-2.5c-0.5,0-0.8,0-1.1,0h-3.6V64h-5.6V34c1.5-0.3,2.9-0.5,4.4-0.7
		C59.5,33.3,60.8,33.1,62.1,33.1z M62.4,38c-1.1,0-2.3,0-3.3,0.2v10h2.4c1.1,0,2.5,0,3.6-0.2c1-0.2,1.8-0.3,2.6-0.8
		c0.7-0.3,1.1-0.8,1.6-1.5c0.3-0.8,0.5-1.6,0.5-2.5s-0.2-1.6-0.5-2.5c-0.3-0.7-0.8-1.1-1.5-1.5c-0.8-0.5-1.5-0.7-2.4-0.8
		C64.5,38.2,63.5,38,62.4,38L62.4,38z"/>
	<path id="path81" class="st2" d="M85.1,30.7c-0.5,0-0.8,0-1,0l0.3-4.1c5.1,0.2,10-2,13.4-5.6l2.9,2.8
		C96.7,28.1,91.1,30.7,85.1,30.7z"/>
	<path id="path83" class="st2" d="M107,53.1c-2.3,4.2-6.9,6.9-11.8,6.9c-5.6,0-7.7-4.7-8.2-5.9c5.1-0.3,15.2-2,21.4-9.3
		c-0.8-4.1-3.8-11.8-13.4-11.9c-1.8,0-3.6,0.3-5.2,1c-1.8,0.7-3.4,1.6-4.7,2.9c-1.5,1.5-2.6,3.1-3.3,5.1c-0.8,2.3-1.3,4.7-1.1,7.2
		c0,2.1,0.3,4.4,1,6.4c0.7,2,1.8,3.6,3.3,5.1c2.8,2.8,6.5,4.4,10.6,4.2c7.5,0,11.9-4.2,13.9-7.5L107,53.1z M94.9,37.9
		c4.4-0.2,6.9,4.2,7.2,5.4c-5.2,4.2-11.9,4.9-15.7,5.2C86.4,48.5,85.8,38,94.9,37.9L94.9,37.9z"/>
</g>
</svg>
